<svg width="1186" height="947" viewBox="0 0 1186 947" fill="none" xmlns="http://www.w3.org/2000/svg">
<path d="M160.31 379.741H1025.53V870.335H160.31V379.741Z" fill="#393939"/>
<path d="M592.35 0L1185.27 187.881H3.97906L592.35 0Z" fill="#A5A5A5"/>
<path fill-rule="evenodd" clip-rule="evenodd" d="M592.357 5.96542L40.4696 182.196H1148.51L592.357 5.96542ZM592.35 0L3.97906 187.881H1185.27L592.35 0Z" fill="white"/>
<path d="M2.27357 191.576H1185.27L1153.72 255.245H38.3717L2.27357 191.576Z" fill="#A5A5A5"/>
<path fill-rule="evenodd" clip-rule="evenodd" d="M2.27357 191.576L38.3717 255.245H1153.72L1185.27 191.576H2.27357ZM12.0315 197.26L41.6835 249.56H1150.19L1176.11 197.26H12.0315Z" fill="white"/>
<path d="M0 946.51H1183L1151.45 874.314H36.0981L0 946.51Z" fill="#A5A5A5"/>
<path fill-rule="evenodd" clip-rule="evenodd" d="M0 946.51L36.0981 874.314H1151.45L1183 946.51H0ZM9.19811 940.825L39.6115 879.998H1147.73L1174.31 940.825H9.19811Z" fill="white"/>
<path d="M42.636 258.656H1151.73V331.989H42.636V258.656Z" fill="#59FF00" fill-opacity="0.89"/>
<path fill-rule="evenodd" clip-rule="evenodd" d="M1146.05 264.341H48.3208V326.304H1146.05V264.341ZM42.636 258.656V331.989H1151.73V258.656H42.636Z" fill="white"/>
<path d="M58.5523 335.4H1128.42V375.762H58.5523V335.4Z" fill="#A5A5A5"/>
<path fill-rule="evenodd" clip-rule="evenodd" d="M1122.74 341.085H64.2371V370.077H1122.74V341.085ZM58.5523 335.4V375.762H1128.42V335.4H58.5523Z" fill="white"/>
<path d="M58.5523 379.741H187.596L163.436 491.73H83.8494L58.5523 379.741Z" fill="#A5A5A5"/>
<path fill-rule="evenodd" clip-rule="evenodd" d="M58.5523 379.741L83.8494 491.73H163.436L187.596 379.741H58.5523ZM65.6644 385.426L88.3933 486.046H158.847L180.554 385.426H65.6644Z" fill="white"/>
<path d="M338.242 379.741H467.286L443.125 491.73H363.539L338.242 379.741Z" fill="#A5A5A5"/>
<path fill-rule="evenodd" clip-rule="evenodd" d="M338.242 379.741L363.539 491.73H443.125L467.286 379.741H338.242ZM345.354 385.426L368.083 486.046H438.536L460.244 385.426H345.354Z" fill="white"/>
<path d="M716.278 379.741H845.322L821.162 491.73H741.575L716.278 379.741Z" fill="#A5A5A5"/>
<path fill-rule="evenodd" clip-rule="evenodd" d="M716.278 379.741L741.575 491.73H821.162L845.322 379.741H716.278ZM723.39 385.426L746.119 486.046H816.572L838.28 385.426H723.39Z" fill="white"/>
<path d="M999.378 379.741H1128.42L1104.26 491.73H1024.68L999.378 379.741Z" fill="#A5A5A5"/>
<path fill-rule="evenodd" clip-rule="evenodd" d="M999.378 379.741L1024.68 491.73H1104.26L1128.42 379.741H999.378ZM1006.49 385.426L1029.22 486.046H1099.67L1121.38 385.426H1006.49Z" fill="white"/>
<path d="M85.8402 495.71H160.31V870.335H85.8402V495.71Z" fill="#A5A5A5"/>
<path fill-rule="evenodd" clip-rule="evenodd" d="M154.626 501.395H91.5249V864.65H154.626V501.395ZM85.8402 495.71V870.335H160.31V495.71H85.8402Z" fill="white"/>
<path d="M365.53 495.71H440V870.335H365.53V495.71Z" fill="#A5A5A5"/>
<path fill-rule="evenodd" clip-rule="evenodd" d="M434.315 501.395H371.214V864.65H434.315V501.395ZM365.53 495.71V870.335H440V495.71H365.53Z" fill="white"/>
<path d="M745.838 495.71H820.308V870.335H745.838V495.71Z" fill="#A5A5A5"/>
<path fill-rule="evenodd" clip-rule="evenodd" d="M814.624 501.395H751.523V864.65H814.624V501.395ZM745.838 495.71V870.335H820.308V495.71H745.838Z" fill="white"/>
<path d="M1025.53 495.71H1100V870.335H1025.53V495.71Z" fill="#A5A5A5"/>
<path fill-rule="evenodd" clip-rule="evenodd" d="M1094.31 501.395H1031.21V864.65H1094.31V501.395ZM1025.53 495.71V870.335H1100V495.71H1025.53Z" fill="white"/>
<path fill-rule="evenodd" clip-rule="evenodd" d="M97.2091 870.335L97.2091 500.258L102.894 500.258L102.894 870.335L97.2091 870.335Z" fill="white"/>
<path fill-rule="evenodd" clip-rule="evenodd" d="M376.899 870.335L376.899 500.258L382.583 500.258L382.583 870.335L376.899 870.335Z" fill="white"/>
<path fill-rule="evenodd" clip-rule="evenodd" d="M757.208 870.335L757.208 500.258L762.893 500.258L762.893 870.335L757.208 870.335Z" fill="white"/>
<path fill-rule="evenodd" clip-rule="evenodd" d="M1036.9 870.335L1036.9 500.258L1042.58 500.258L1042.58 870.335L1036.9 870.335Z" fill="white"/>
<path fill-rule="evenodd" clip-rule="evenodd" d="M108.578 870.335L108.578 500.258L114.263 500.258L114.263 870.335L108.578 870.335Z" fill="white"/>
<path fill-rule="evenodd" clip-rule="evenodd" d="M388.268 870.335L388.268 500.258L393.952 500.258L393.952 870.335L388.268 870.335Z" fill="white"/>
<path fill-rule="evenodd" clip-rule="evenodd" d="M768.577 870.335L768.577 500.258L774.262 500.258L774.262 870.335L768.577 870.335Z" fill="white"/>
<path fill-rule="evenodd" clip-rule="evenodd" d="M1048.27 870.335L1048.27 500.258L1053.95 500.258L1053.95 870.335L1048.27 870.335Z" fill="white"/>
<path fill-rule="evenodd" clip-rule="evenodd" d="M119.949 870.335L119.949 500.258L125.633 500.258L125.633 870.335L119.949 870.335Z" fill="white"/>
<path fill-rule="evenodd" clip-rule="evenodd" d="M399.638 870.335L399.638 500.258L405.323 500.258L405.323 870.335L399.638 870.335Z" fill="white"/>
<path fill-rule="evenodd" clip-rule="evenodd" d="M779.948 870.335L779.948 500.258L785.633 500.258L785.632 870.335L779.948 870.335Z" fill="white"/>
<path fill-rule="evenodd" clip-rule="evenodd" d="M1059.64 870.335L1059.64 500.258L1065.32 500.258L1065.32 870.335L1059.64 870.335Z" fill="white"/>
<path fill-rule="evenodd" clip-rule="evenodd" d="M131.318 868.061L131.318 497.984L137.002 497.984L137.002 868.061L131.318 868.061Z" fill="white"/>
<path fill-rule="evenodd" clip-rule="evenodd" d="M411.007 868.061L411.007 497.984L416.692 497.984L416.692 868.061L411.007 868.061Z" fill="white"/>
<path fill-rule="evenodd" clip-rule="evenodd" d="M791.317 868.061L791.317 497.984L797.002 497.984L797.002 868.061L791.317 868.061Z" fill="white"/>
<path fill-rule="evenodd" clip-rule="evenodd" d="M1071.01 868.061L1071.01 497.984L1076.69 497.984L1076.69 868.061L1071.01 868.061Z" fill="white"/>
<path fill-rule="evenodd" clip-rule="evenodd" d="M142.687 868.061L142.687 497.984L148.372 497.984L148.372 868.061L142.687 868.061Z" fill="white"/>
<path fill-rule="evenodd" clip-rule="evenodd" d="M422.376 868.061L422.376 497.984L428.061 497.984L428.061 868.061L422.376 868.061Z" fill="white"/>
<path fill-rule="evenodd" clip-rule="evenodd" d="M802.686 868.061L802.686 497.984L808.371 497.984L808.371 868.061L802.686 868.061Z" fill="white"/>
<path fill-rule="evenodd" clip-rule="evenodd" d="M1082.38 868.061L1082.38 497.984L1088.06 497.984L1088.06 868.061L1082.38 868.061Z" fill="white"/>
<path fill-rule="evenodd" clip-rule="evenodd" d="M167.132 474.676H84.1347V468.992H167.132V474.676Z" fill="white"/>
<path fill-rule="evenodd" clip-rule="evenodd" d="M446.821 474.676H363.824V468.992H446.821V474.676Z" fill="white"/>
<path fill-rule="evenodd" clip-rule="evenodd" d="M824.856 474.676H741.859V468.992H824.856V474.676Z" fill="white"/>
<path fill-rule="evenodd" clip-rule="evenodd" d="M1107.96 474.676H1024.96V468.992H1107.96V474.676Z" fill="white"/>
<path d="M653.177 93.514C653.177 126.323 626.58 152.92 593.771 152.92C560.963 152.92 534.366 126.323 534.366 93.514C534.366 60.7052 560.963 34.1084 593.771 34.1084C626.58 34.1084 653.177 60.7052 653.177 93.514Z" fill="#A5A5A5"/>
<path fill-rule="evenodd" clip-rule="evenodd" d="M593.771 147.235C623.441 147.235 647.492 123.183 647.492 93.514C647.492 63.8448 623.441 39.7931 593.771 39.7931C564.102 39.7931 540.051 63.8448 540.051 93.514C540.051 123.183 564.102 147.235 593.771 147.235ZM593.771 152.92C626.58 152.92 653.177 126.323 653.177 93.514C653.177 60.7052 626.58 34.1084 593.771 34.1084C560.963 34.1084 534.366 60.7052 534.366 93.514C534.366 126.323 560.963 152.92 593.771 152.92Z" fill="black"/>
<path d="M468.992 530.387H716.847V762.893H468.992V530.387Z" fill="#6BFF1C"/>
<path fill-rule="evenodd" clip-rule="evenodd" d="M711.162 536.071H474.676V757.208H711.162V536.071ZM468.992 530.387V762.893H716.847V530.387H468.992Z" fill="white"/>
<path d="M184.186 530.387H341.653V762.893H184.186V530.387Z" fill="#6BFF1C"/>
<path fill-rule="evenodd" clip-rule="evenodd" d="M335.968 536.071H189.87V757.208H335.968V536.071ZM184.186 530.387V762.893H341.653V530.387H184.186Z" fill="white"/>
<path d="M844.185 530.387H1001.65V762.893H844.185V530.387Z" fill="#6BFF1C"/>
<path fill-rule="evenodd" clip-rule="evenodd" d="M995.968 536.071H849.87V757.208H995.968V536.071ZM844.185 530.387V762.893H1001.65V530.387H844.185Z" fill="white"/>
<path fill-rule="evenodd" clip-rule="evenodd" d="M339.379 567.906H186.459V562.221H339.379V567.906Z" fill="white"/>
<path fill-rule="evenodd" clip-rule="evenodd" d="M713.436 567.906H468.992V562.221H713.436V567.906Z" fill="white"/>
<path fill-rule="evenodd" clip-rule="evenodd" d="M999.378 567.906H846.458V562.221H999.378V567.906Z" fill="white"/>
<path fill-rule="evenodd" clip-rule="evenodd" d="M223.411 761.187L223.411 530.387L229.095 530.387L229.095 761.187L223.411 761.187Z" fill="white"/>
<path fill-rule="evenodd" clip-rule="evenodd" d="M883.41 761.187L883.41 530.387L889.094 530.387L889.094 761.187L883.41 761.187Z" fill="white"/>
<path fill-rule="evenodd" clip-rule="evenodd" d="M297.88 762.893L297.88 532.092L303.565 532.092L303.565 762.893L297.88 762.893Z" fill="white"/>
<path fill-rule="evenodd" clip-rule="evenodd" d="M511.058 761.187L511.058 530.387L516.743 530.387L516.743 761.187L511.058 761.187Z" fill="white"/>
<path fill-rule="evenodd" clip-rule="evenodd" d="M670.232 762.893L670.232 532.092L675.917 532.092L675.917 762.893L670.232 762.893Z" fill="white"/>
<path fill-rule="evenodd" clip-rule="evenodd" d="M957.88 762.893L957.88 532.092L963.564 532.092L963.564 762.893L957.88 762.893Z" fill="white"/>
<path fill-rule="evenodd" clip-rule="evenodd" d="M339.379 736.175H186.459V730.49H339.379V736.175Z" fill="white"/>
<path fill-rule="evenodd" clip-rule="evenodd" d="M713.436 736.175H474.108V730.49H713.436V736.175Z" fill="white"/>
<path fill-rule="evenodd" clip-rule="evenodd" d="M999.378 736.175H846.458V730.49H999.378V736.175Z" fill="white"/>
</svg>
