<svg width="1164" height="541" viewBox="0 0 1164 541" fill="none" xmlns="http://www.w3.org/2000/svg">
<g filter="url(#filter0_i_379_2177)">
<rect width="1164" height="541" rx="20" fill="#999999"/>
</g>
<rect x="1.5" y="1.5" width="1161" height="538" rx="18.5" stroke="white" stroke-width="3"/>
<rect x="14.5" y="94.5" width="71" height="40" rx="8.5" fill="#D9D9D9" stroke="black" stroke-width="3"/>
<rect x="14.5" y="147.5" width="68" height="57" rx="8.5" fill="#D9D9D9" stroke="black" stroke-width="3"/>
<rect x="118.5" y="217.5" width="68" height="57" rx="8.5" fill="#D9D9D9" stroke="black" stroke-width="3"/>
<rect x="141.5" y="287.5" width="68" height="57" rx="8.5" fill="#D9D9D9" stroke="black" stroke-width="3"/>
<path d="M111 357H162C166.694 357 170.5 360.806 170.5 365.5V405.5C170.5 410.194 166.694 414 162 414H111C106.306 414 102.5 410.194 102.5 405.5V365.5C102.5 360.806 106.306 357 111 357Z" fill="#D9D9D9" stroke="black" stroke-width="3"/>
<rect x="554.5" y="147.5" width="67" height="57" rx="8.5" fill="#D9D9D9" stroke="black" stroke-width="3"/>
<rect x="659.5" y="217.5" width="67" height="57" rx="8.5" fill="#D9D9D9" stroke="black" stroke-width="3"/>
<rect x="682.5" y="287.5" width="67" height="57" rx="8.5" fill="#D9D9D9" stroke="black" stroke-width="3"/>
<rect x="643.5" y="357.5" width="67" height="57" rx="8.5" fill="#D9D9D9" stroke="black" stroke-width="3"/>
<rect x="169.5" y="147.5" width="66" height="57" rx="8.5" fill="#D9D9D9" stroke="black" stroke-width="3"/>
<rect x="273.5" y="217.5" width="66" height="57" rx="8.5" fill="#D9D9D9" stroke="black" stroke-width="3"/>
<rect x="296.5" y="287.5" width="66" height="57" rx="8.5" fill="#D9D9D9" stroke="black" stroke-width="3"/>
<rect x="257.5" y="357.5" width="66" height="57" rx="8.5" fill="#D9D9D9" stroke="black" stroke-width="3"/>
<rect x="707.5" y="147.5" width="68" height="57" rx="8.5" fill="#D9D9D9" stroke="black" stroke-width="3"/>
<rect x="814.5" y="217.5" width="68" height="57" rx="8.5" fill="#D9D9D9" stroke="black" stroke-width="3"/>
<rect x="837.5" y="287.5" width="68" height="57" rx="8.5" fill="#D9D9D9" stroke="black" stroke-width="3"/>
<rect x="798.5" y="357.5" width="68" height="57" rx="8.5" fill="#D9D9D9" stroke="black" stroke-width="3"/>
<rect x="322.5" y="147.5" width="68" height="57" rx="8.5" fill="#D9D9D9" stroke="black" stroke-width="3"/>
<rect x="427.5" y="217.5" width="68" height="57" rx="8.5" fill="#D9D9D9" stroke="black" stroke-width="3"/>
<rect x="450.5" y="287.5" width="68" height="57" rx="8.5" fill="#D9D9D9" stroke="black" stroke-width="3"/>
<rect x="411.5" y="357.5" width="68" height="57" rx="8.5" fill="#D9D9D9" stroke="black" stroke-width="3"/>
<rect x="862.5" y="147.5" width="67" height="57" rx="8.5" fill="#D9D9D9" stroke="black" stroke-width="3"/>
<rect x="970.5" y="217.5" width="67" height="57" rx="8.5" fill="#D9D9D9" stroke="black" stroke-width="3"/>
<rect x="993.5" y="287.5" width="67" height="57" rx="8.5" fill="#D9D9D9" stroke="black" stroke-width="3"/>
<rect x="500.5" y="94.5" width="71" height="40" rx="8.5" fill="#D9D9D9" stroke="black" stroke-width="3"/>
<rect x="257.5" y="94.5" width="71" height="40" rx="8.5" fill="#D9D9D9" stroke="black" stroke-width="3"/>
<rect x="743.5" y="94.5" width="71" height="40" rx="8.5" fill="#D9D9D9" stroke="black" stroke-width="3"/>
<rect x="95.5" y="94.5" width="71" height="40" rx="8.5" fill="#D9D9D9" stroke="black" stroke-width="3"/>
<rect x="581.5" y="94.5" width="71" height="40" rx="8.5" fill="#D9D9D9" stroke="black" stroke-width="3"/>
<rect x="338.5" y="94.5" width="71" height="40" rx="8.5" fill="#D9D9D9" stroke="black" stroke-width="3"/>
<rect x="824.5" y="94.5" width="71" height="40" rx="8.5" fill="#D9D9D9" stroke="black" stroke-width="3"/>
<rect x="905.5" y="465.5" width="71" height="40" rx="8.5" fill="#D9D9D9" stroke="black" stroke-width="3"/>
<rect x="986.5" y="465.5" width="71" height="40" rx="8.5" fill="#D9D9D9" stroke="black" stroke-width="3"/>
<rect x="986.5" y="424.5" width="71" height="40" rx="8.5" fill="#D9D9D9" stroke="black" stroke-width="3"/>
<rect x="1067.5" y="465.5" width="71" height="40" rx="8.5" fill="#D9D9D9" stroke="black" stroke-width="3"/>
<rect x="986.5" y="94.5" width="71" height="40" rx="8.5" fill="#D9D9D9" stroke="black" stroke-width="3"/>
<rect x="176.5" y="94.5" width="71" height="40" rx="8.5" fill="#D9D9D9" stroke="black" stroke-width="3"/>
<rect x="662.5" y="94.5" width="71" height="40" rx="8.5" fill="#D9D9D9" stroke="black" stroke-width="3"/>
<rect x="419.5" y="94.5" width="71" height="40" rx="8.5" fill="#D9D9D9" stroke="black" stroke-width="3"/>
<rect x="905.5" y="94.5" width="71" height="40" rx="8.5" fill="#D9D9D9" stroke="black" stroke-width="3"/>
<rect x="1067.5" y="94.5" width="71" height="40" rx="8.5" fill="#D9D9D9" stroke="black" stroke-width="3"/>
<rect x="91.5" y="147.5" width="67" height="57" rx="8.5" fill="#D9D9D9" stroke="black" stroke-width="3"/>
<rect x="196.5" y="217.5" width="67" height="57" rx="8.5" fill="#D9D9D9" stroke="black" stroke-width="3"/>
<rect x="219.5" y="287.5" width="67" height="57" rx="8.5" fill="#D9D9D9" stroke="black" stroke-width="3"/>
<rect x="180.5" y="357.5" width="67" height="57" rx="8.5" fill="#D9D9D9" stroke="black" stroke-width="3"/>
<rect x="630.5" y="147.5" width="68" height="57" rx="8.5" fill="#D9D9D9" stroke="black" stroke-width="3"/>
<rect x="736.5" y="217.5" width="68" height="57" rx="8.5" fill="#D9D9D9" stroke="black" stroke-width="3"/>
<rect x="759.5" y="287.5" width="68" height="57" rx="8.5" fill="#D9D9D9" stroke="black" stroke-width="3"/>
<rect x="720.5" y="357.5" width="68" height="57" rx="8.5" fill="#D9D9D9" stroke="black" stroke-width="3"/>
<rect x="245.5" y="147.5" width="68" height="57" rx="8.5" fill="#D9D9D9" stroke="black" stroke-width="3"/>
<rect x="349.5" y="217.5" width="68" height="57" rx="8.5" fill="#D9D9D9" stroke="black" stroke-width="3"/>
<rect x="372.5" y="287.5" width="68" height="57" rx="8.5" fill="#D9D9D9" stroke="black" stroke-width="3"/>
<rect x="333.5" y="357.5" width="68" height="57" rx="8.5" fill="#D9D9D9" stroke="black" stroke-width="3"/>
<rect x="785.5" y="147.5" width="68" height="57" rx="8.5" fill="#D9D9D9" stroke="black" stroke-width="3"/>
<rect x="892.5" y="217.5" width="68" height="57" rx="8.5" fill="#D9D9D9" stroke="black" stroke-width="3"/>
<rect x="915.5" y="287.5" width="68" height="57" rx="8.5" fill="#D9D9D9" stroke="black" stroke-width="3"/>
<rect x="876.5" y="357.5" width="68" height="57" rx="8.5" fill="#D9D9D9" stroke="black" stroke-width="3"/>
<rect x="399.5" y="147.5" width="68" height="57" rx="8.5" fill="#D9D9D9" stroke="black" stroke-width="3"/>
<rect x="505.5" y="217.5" width="68" height="57" rx="8.5" fill="#D9D9D9" stroke="black" stroke-width="3"/>
<rect x="528.5" y="287.5" width="68" height="57" rx="8.5" fill="#D9D9D9" stroke="black" stroke-width="3"/>
<rect x="489.5" y="357.5" width="68" height="57" rx="8.5" fill="#D9D9D9" stroke="black" stroke-width="3"/>
<rect x="939.5" y="147.5" width="67" height="57" rx="8.5" fill="#D9D9D9" stroke="black" stroke-width="3"/>
<rect x="477.5" y="147.5" width="66" height="57" rx="8.5" fill="#D9D9D9" stroke="black" stroke-width="3"/>
<rect x="583.5" y="217.5" width="66" height="57" rx="8.5" fill="#D9D9D9" stroke="black" stroke-width="3"/>
<rect x="606.5" y="287.5" width="66" height="57" rx="8.5" fill="#D9D9D9" stroke="black" stroke-width="3"/>
<rect x="567.5" y="357.5" width="66" height="57" rx="8.5" fill="#D9D9D9" stroke="black" stroke-width="3"/>
<rect x="1016.5" y="147.5" width="122" height="57" rx="8.5" fill="#D9D9D9" stroke="black" stroke-width="3"/>
<rect x="954.5" y="357.5" width="184" height="57" rx="8.5" fill="#D9D9D9" stroke="black" stroke-width="3"/>
<path d="M1056 217.5H1130C1134.69 217.5 1138.5 221.306 1138.5 226V335.5C1138.5 340.194 1134.69 344 1130 344H1082C1077.31 344 1073.5 340.194 1073.5 335.5V286C1073.5 279.649 1068.35 274.5 1062 274.5H1056C1051.31 274.5 1047.5 270.694 1047.5 266V226C1047.5 221.306 1051.31 217.5 1056 217.5Z" fill="#D9D9D9" stroke="black" stroke-width="3"/>
<rect x="14.5" y="217.5" width="94" height="57" rx="8.5" fill="#D9D9D9" stroke="black" stroke-width="3"/>
<rect x="14.5" y="357.5" width="78" height="57" rx="8.5" fill="#D9D9D9" stroke="black" stroke-width="3"/>
<rect x="14.5" y="505.5" width="78" height="68" rx="8.5" transform="rotate(-90 14.5 505.5)" fill="#D9D9D9" stroke="black" stroke-width="3"/>
<rect x="92.5" y="505.5" width="78" height="68" rx="8.5" transform="rotate(-90 92.5 505.5)" fill="#D9D9D9" stroke="black" stroke-width="3"/>
<rect x="170.5" y="505.5" width="78" height="68" rx="8.5" transform="rotate(-90 170.5 505.5)" fill="#D9D9D9" stroke="black" stroke-width="3"/>
<rect x="805.5" y="505.5" width="78" height="68" rx="8.5" transform="rotate(-90 805.5 505.5)" fill="#D9D9D9" stroke="black" stroke-width="3"/>
<rect x="248.5" y="505.5" width="78" height="75" rx="8.5" transform="rotate(-90 248.5 505.5)" fill="#D9D9D9" stroke="black" stroke-width="3"/>
<rect x="720.5" y="505.5" width="78" height="75" rx="8.5" transform="rotate(-90 720.5 505.5)" fill="#D9D9D9" stroke="black" stroke-width="3"/>
<rect x="333.5" y="505.5" width="78" height="377" rx="8.5" transform="rotate(-90 333.5 505.5)" fill="#D9D9D9" stroke="black" stroke-width="3"/>
<rect x="14.5" y="287.5" width="117" height="57" rx="8.5" fill="#D9D9D9" stroke="black" stroke-width="3"/>
<path d="M42.984 116.544H35.352C35.4053 117.237 35.704 117.787 36.248 118.192C36.792 118.587 37.5173 118.784 38.424 118.784C39.2667 118.784 39.9493 118.645 40.472 118.368C41.0053 118.08 41.2933 117.701 41.336 117.232H42.984C42.8987 118.16 42.4507 118.885 41.64 119.408C40.84 119.931 39.768 120.192 38.424 120.192C37.4747 120.192 36.648 120.032 35.944 119.712C35.24 119.381 34.696 118.917 34.312 118.32C33.9387 117.723 33.752 117.024 33.752 116.224V115.888C33.752 115.077 33.9387 114.373 34.312 113.776C34.696 113.168 35.24 112.704 35.944 112.384C36.648 112.053 37.4747 111.888 38.424 111.888C39.8427 111.888 40.9573 112.24 41.768 112.944C42.5787 113.637 42.984 114.597 42.984 115.824V116.544ZM38.424 113.296C37.5707 113.296 36.8773 113.472 36.344 113.824C35.8213 114.165 35.5013 114.645 35.384 115.264H41.352C41.256 114.645 40.952 114.165 40.44 113.824C39.928 113.472 39.256 113.296 38.424 113.296ZM49.3184 120.192C47.889 120.192 46.7637 119.963 45.9424 119.504C45.121 119.045 44.7104 118.416 44.7104 117.616V117.504H46.2464V117.616C46.2464 118.405 47.281 118.8 49.3504 118.8C50.2677 118.8 50.9664 118.715 51.4464 118.544C51.9264 118.363 52.1664 118.107 52.1664 117.776V117.664C52.1664 117.397 52.017 117.2 51.7184 117.072C51.4197 116.944 50.8917 116.837 50.1344 116.752L48.2944 116.56C47.153 116.443 46.321 116.213 45.7984 115.872C45.2757 115.531 45.0144 115.04 45.0144 114.4V114.24C45.0144 113.504 45.393 112.928 46.1504 112.512C46.9077 112.096 47.9584 111.888 49.3024 111.888C50.689 111.888 51.7717 112.117 52.5504 112.576C53.329 113.024 53.7184 113.648 53.7184 114.448V114.56H52.1984V114.448C52.1984 114.064 51.9477 113.771 51.4464 113.568C50.9557 113.365 50.2197 113.264 49.2384 113.264C48.4064 113.264 47.7557 113.349 47.2864 113.52C46.8277 113.68 46.5984 113.909 46.5984 114.208V114.32C46.5984 114.587 46.7264 114.789 46.9824 114.928C47.249 115.067 47.6917 115.163 48.3104 115.216L50.1824 115.392C51.4304 115.509 52.337 115.749 52.9024 116.112C53.4677 116.464 53.7504 116.971 53.7504 117.632V117.792C53.7504 118.539 53.3557 119.125 52.5664 119.552C51.777 119.979 50.6944 120.192 49.3184 120.192ZM60.222 120.192C59.2727 120.192 58.4407 120.032 57.726 119.712C57.0113 119.381 56.462 118.917 56.078 118.32C55.694 117.712 55.502 117.008 55.502 116.208V115.92C55.502 115.099 55.694 114.384 56.078 113.776C56.462 113.168 57.006 112.704 57.71 112.384C58.4247 112.053 59.262 111.888 60.222 111.888C61.086 111.888 61.8647 112.037 62.558 112.336C63.2513 112.624 63.79 113.029 64.174 113.552C64.5687 114.064 64.766 114.645 64.766 115.296V115.36H63.182V115.296C63.182 114.912 63.054 114.571 62.798 114.272C62.5527 113.963 62.2007 113.723 61.742 113.552C61.294 113.381 60.7873 113.296 60.222 113.296C59.2407 113.296 58.4727 113.531 57.918 114C57.3633 114.459 57.086 115.104 57.086 115.936V116.192C57.086 117.003 57.3633 117.637 57.918 118.096C58.4727 118.555 59.2407 118.784 60.222 118.784C60.798 118.784 61.31 118.699 61.758 118.528C62.206 118.357 62.5527 118.123 62.798 117.824C63.054 117.525 63.182 117.184 63.182 116.8V116.736H64.766V116.8C64.766 117.461 64.574 118.048 64.19 118.56C63.806 119.072 63.2673 119.472 62.574 119.76C61.8913 120.048 61.1073 120.192 60.222 120.192Z" fill="black"/>
<path d="M131.496 109.504V110.928H124.072V114.176H131.176V115.6H124.072V120H122.472V109.504H131.496ZM138.33 120H136.762V111.872C136.25 112.16 135.583 112.304 134.762 112.304H132.954V110.816H134.634C135.359 110.816 135.892 110.709 136.234 110.496C136.586 110.283 136.762 109.952 136.762 109.504H138.33V120Z" fill="black"/>
<path d="M127.064 191H125.496V182.872C124.984 183.16 124.317 183.304 123.496 183.304H121.688V181.816H123.368C124.093 181.816 124.627 181.709 124.968 181.496C125.32 181.283 125.496 180.952 125.496 180.504H127.064V191Z" fill="black"/>
<path d="M151.78 241.64C153.287 241.64 154.6 241.913 155.72 242.46C156.853 243.007 157.727 243.787 158.34 244.8C158.953 245.8 159.26 246.973 159.26 248.32V248.58C159.26 250.327 158.747 251.78 157.72 252.94C156.707 254.087 155.307 254.807 153.52 255.1L154.52 257.56V257.86H152.52L151.46 255.24C150.007 255.2 148.74 254.907 147.66 254.36C146.58 253.8 145.747 253.027 145.16 252.04C144.573 251.04 144.28 249.887 144.28 248.58V248.32C144.28 246.973 144.587 245.8 145.2 244.8C145.813 243.787 146.687 243.007 147.82 242.46C148.953 241.913 150.273 241.64 151.78 241.64ZM157.24 248.3C157.24 246.793 156.76 245.62 155.8 244.78C154.84 243.927 153.5 243.5 151.78 243.5C150.06 243.5 148.713 243.927 147.74 244.78C146.78 245.62 146.3 246.793 146.3 248.3V248.62C146.3 250.113 146.78 251.28 147.74 252.12C148.713 252.96 150.06 253.38 151.78 253.38C153.5 253.38 154.84 252.96 155.8 252.12C156.76 251.28 157.24 250.113 157.24 248.62V248.3Z" fill="black"/>
<path d="M183 320.7V321H180.96L179.4 317.68H172L170.44 321H168.4V320.7L174.6 307.88H176.8L183 320.7ZM178.54 315.88L175.7 309.86L172.86 315.88H178.54Z" fill="black"/>
<path d="M220 379.66L210.58 389.22H220V391H207.92V389.22L217.34 379.66H207.92V377.88H220V379.66Z" fill="black"/>
<path d="M45.86 484.78H41.38V493H39.46V484.78H36V483.1H39.46V482.18C39.46 481.22 39.74 480.467 40.3 479.92C40.8733 479.36 41.6533 479.08 42.64 479.08H45.06V480.78H42.88C42.4 480.78 42.0267 480.907 41.76 481.16C41.5067 481.413 41.38 481.787 41.38 482.28V483.1H45.86V484.78ZM53.4 482.86C55.1333 482.86 56.44 483.293 57.32 484.16C58.2133 485.013 58.66 486.273 58.66 487.94V493H56.76V487.94C56.76 486.86 56.4533 486.04 55.84 485.48C55.24 484.907 54.3667 484.62 53.22 484.62C52.4333 484.62 51.7133 484.8 51.06 485.16C50.42 485.52 49.94 486 49.62 486.6V493H47.7V483.1H49.48L49.56 484.38C50.5467 483.393 51.8267 482.887 53.4 482.86Z" fill="black"/>
<path d="M112.84 493.24C111.653 493.24 110.613 493.04 109.72 492.64C108.827 492.227 108.14 491.647 107.66 490.9C107.18 490.14 106.94 489.26 106.94 488.26V487.9C106.94 486.873 107.18 485.98 107.66 485.22C108.14 484.46 108.82 483.88 109.7 483.48C110.593 483.067 111.64 482.86 112.84 482.86C113.92 482.86 114.893 483.047 115.76 483.42C116.627 483.78 117.3 484.287 117.78 484.94C118.273 485.58 118.52 486.307 118.52 487.12V487.2H116.54V487.12C116.54 486.64 116.38 486.213 116.06 485.84C115.753 485.453 115.313 485.153 114.74 484.94C114.18 484.727 113.547 484.62 112.84 484.62C111.613 484.62 110.653 484.913 109.96 485.5C109.267 486.073 108.92 486.88 108.92 487.92V488.24C108.92 489.253 109.267 490.047 109.96 490.62C110.653 491.193 111.613 491.48 112.84 491.48C113.56 491.48 114.2 491.373 114.76 491.16C115.32 490.947 115.753 490.653 116.06 490.28C116.38 489.907 116.54 489.48 116.54 489V488.92H118.52V489C118.52 489.827 118.28 490.56 117.8 491.2C117.32 491.84 116.647 492.34 115.78 492.7C114.927 493.06 113.947 493.24 112.84 493.24ZM124.627 484.78V489.78C124.627 490.273 124.767 490.653 125.047 490.92C125.327 491.173 125.721 491.3 126.227 491.3H128.587V493H126.067C125.027 493 124.207 492.72 123.607 492.16C123.021 491.6 122.727 490.827 122.727 489.84V484.78H119.027V483.1H122.187C122.414 483.1 122.567 483.06 122.647 482.98C122.727 482.887 122.767 482.733 122.767 482.52V480.44H124.627V483.1H129.187V484.78H124.627ZM138.638 483.1V484.78H136.438C135.718 484.78 135.078 484.9 134.518 485.14C133.971 485.38 133.545 485.72 133.238 486.16V493H131.318V483.1H133.118L133.178 484.24C133.618 483.867 134.138 483.587 134.738 483.4C135.338 483.2 135.991 483.1 136.698 483.1H138.638ZM143.731 493C142.758 493 142.018 492.78 141.511 492.34C141.018 491.887 140.771 491.227 140.771 490.36V479.08H142.691V490.04C142.691 490.493 142.798 490.82 143.011 491.02C143.224 491.207 143.578 491.3 144.071 491.3H144.931V493H143.731Z" fill="black"/>
<path d="M203.22 491.3V493H201.9C201.247 493 200.7 492.873 200.26 492.62C199.82 492.367 199.513 492.007 199.34 491.54C198.807 492.113 198.167 492.54 197.42 492.82C196.673 493.1 195.793 493.24 194.78 493.24C193.353 493.24 192.253 492.993 191.48 492.5C190.707 491.993 190.32 491.273 190.32 490.34C190.32 489.54 190.62 488.9 191.22 488.42C191.82 487.94 192.7 487.64 193.86 487.52L199.2 486.96C199.16 486.213 198.847 485.647 198.26 485.26C197.673 484.873 196.833 484.68 195.74 484.68C194.687 484.68 193.847 484.86 193.22 485.22C192.593 485.58 192.28 486.06 192.28 486.66V486.74H190.38V486.66C190.38 485.913 190.6 485.253 191.04 484.68C191.493 484.093 192.127 483.647 192.94 483.34C193.753 483.02 194.693 482.86 195.76 482.86C197.453 482.86 198.767 483.233 199.7 483.98C200.633 484.727 201.1 485.773 201.1 487.12V490.2C201.1 490.547 201.207 490.82 201.42 491.02C201.633 491.207 201.94 491.3 202.34 491.3H203.22ZM194.74 491.54C195.82 491.54 196.747 491.373 197.52 491.04C198.293 490.693 198.853 490.207 199.2 489.58V488.52L194.28 489.04C193.587 489.107 193.067 489.247 192.72 489.46C192.387 489.673 192.22 489.967 192.22 490.34C192.22 491.14 193.06 491.54 194.74 491.54ZM208.176 493C207.203 493 206.463 492.78 205.956 492.34C205.463 491.887 205.216 491.227 205.216 490.36V479.08H207.136V490.04C207.136 490.493 207.243 490.82 207.456 491.02C207.67 491.207 208.023 491.3 208.516 491.3H209.376V493H208.176ZM214.932 484.78V489.78C214.932 490.273 215.072 490.653 215.352 490.92C215.632 491.173 216.025 491.3 216.532 491.3H218.892V493H216.372C215.332 493 214.512 492.72 213.912 492.16C213.325 491.6 213.032 490.827 213.032 489.84V484.78H209.332V483.1H212.492C212.719 483.1 212.872 483.06 212.952 482.98C213.032 482.887 213.072 482.733 213.072 482.52V480.44H214.932V483.1H219.492V484.78H214.932Z" fill="black"/>
<path d="M839.22 493.3V495H837.9C837.247 495 836.7 494.873 836.26 494.62C835.82 494.367 835.513 494.007 835.34 493.54C834.807 494.113 834.167 494.54 833.42 494.82C832.673 495.1 831.793 495.24 830.78 495.24C829.353 495.24 828.253 494.993 827.48 494.5C826.707 493.993 826.32 493.273 826.32 492.34C826.32 491.54 826.62 490.9 827.22 490.42C827.82 489.94 828.7 489.64 829.86 489.52L835.2 488.96C835.16 488.213 834.847 487.647 834.26 487.26C833.673 486.873 832.833 486.68 831.74 486.68C830.687 486.68 829.847 486.86 829.22 487.22C828.593 487.58 828.28 488.06 828.28 488.66V488.74H826.38V488.66C826.38 487.913 826.6 487.253 827.04 486.68C827.493 486.093 828.127 485.647 828.94 485.34C829.753 485.02 830.693 484.86 831.76 484.86C833.453 484.86 834.767 485.233 835.7 485.98C836.633 486.727 837.1 487.773 837.1 489.12V492.2C837.1 492.547 837.207 492.82 837.42 493.02C837.633 493.207 837.94 493.3 838.34 493.3H839.22ZM830.74 493.54C831.82 493.54 832.747 493.373 833.52 493.04C834.293 492.693 834.853 492.207 835.2 491.58V490.52L830.28 491.04C829.587 491.107 829.067 491.247 828.72 491.46C828.387 491.673 828.22 491.967 828.22 492.34C828.22 493.14 829.06 493.54 830.74 493.54ZM844.176 495C843.203 495 842.463 494.78 841.956 494.34C841.463 493.887 841.216 493.227 841.216 492.36V481.08H843.136V492.04C843.136 492.493 843.243 492.82 843.456 493.02C843.67 493.207 844.023 493.3 844.516 493.3H845.376V495H844.176ZM850.932 486.78V491.78C850.932 492.273 851.072 492.653 851.352 492.92C851.632 493.173 852.025 493.3 852.532 493.3H854.892V495H852.372C851.332 495 850.512 494.72 849.912 494.16C849.325 493.6 849.032 492.827 849.032 491.84V486.78H845.332V485.1H848.492C848.719 485.1 848.872 485.06 848.952 484.98C849.032 484.887 849.072 484.733 849.072 484.52V482.44H850.932V485.1H855.492V486.78H850.932Z" fill="black"/>
<path d="M266.84 493.24C265.653 493.24 264.613 493.04 263.72 492.64C262.827 492.227 262.14 491.647 261.66 490.9C261.18 490.14 260.94 489.26 260.94 488.26V487.9C260.94 486.873 261.18 485.98 261.66 485.22C262.14 484.46 262.82 483.88 263.7 483.48C264.593 483.067 265.64 482.86 266.84 482.86C267.92 482.86 268.893 483.047 269.76 483.42C270.627 483.78 271.3 484.287 271.78 484.94C272.273 485.58 272.52 486.307 272.52 487.12V487.2H270.54V487.12C270.54 486.64 270.38 486.213 270.06 485.84C269.753 485.453 269.313 485.153 268.74 484.94C268.18 484.727 267.547 484.62 266.84 484.62C265.613 484.62 264.653 484.913 263.96 485.5C263.267 486.073 262.92 486.88 262.92 487.92V488.24C262.92 489.253 263.267 490.047 263.96 490.62C264.653 491.193 265.613 491.48 266.84 491.48C267.56 491.48 268.2 491.373 268.76 491.16C269.32 490.947 269.753 490.653 270.06 490.28C270.38 489.907 270.54 489.48 270.54 489V488.92H272.52V489C272.52 489.827 272.28 490.56 271.8 491.2C271.32 491.84 270.647 492.34 269.78 492.7C268.927 493.06 267.947 493.24 266.84 493.24ZM289.178 482.86C290.792 482.86 292.025 483.293 292.878 484.16C293.732 485.013 294.158 486.253 294.158 487.88V493H292.238V487.88C292.238 486.827 291.965 486.02 291.418 485.46C290.872 484.9 290.092 484.62 289.078 484.62C288.305 484.62 287.585 484.807 286.918 485.18C286.265 485.553 285.765 486.047 285.418 486.66C285.485 487.087 285.518 487.493 285.518 487.88V493H283.618V487.88C283.618 486.84 283.345 486.04 282.798 485.48C282.252 484.907 281.472 484.62 280.458 484.62C279.685 484.62 278.978 484.807 278.338 485.18C277.698 485.54 277.218 486.027 276.898 486.64V493H274.998V483.1H276.778L276.838 484.38C277.318 483.887 277.878 483.513 278.518 483.26C279.172 482.993 279.878 482.86 280.638 482.86C281.625 482.86 282.472 483.033 283.178 483.38C283.885 483.713 284.432 484.207 284.818 484.86C285.338 484.22 285.965 483.727 286.698 483.38C287.445 483.033 288.272 482.86 289.178 482.86ZM308.066 479.08V493H306.286L306.226 491.86C305.2 492.78 303.88 493.24 302.266 493.24C301.093 493.24 300.073 493.04 299.206 492.64C298.34 492.227 297.673 491.64 297.206 490.88C296.74 490.12 296.506 489.227 296.506 488.2V487.88C296.506 486.853 296.74 485.967 297.206 485.22C297.673 484.46 298.34 483.88 299.206 483.48C300.073 483.067 301.093 482.86 302.266 482.86C303.026 482.86 303.733 482.973 304.386 483.2C305.053 483.427 305.64 483.753 306.146 484.18V479.08H308.066ZM302.446 491.48C303.233 491.48 303.953 491.34 304.606 491.06C305.26 490.767 305.773 490.373 306.146 489.88V486.2C305.773 485.72 305.26 485.34 304.606 485.06C303.953 484.767 303.233 484.62 302.446 484.62C301.206 484.62 300.233 484.907 299.526 485.48C298.833 486.053 298.486 486.853 298.486 487.88V488.2C298.486 489.213 298.84 490.013 299.546 490.6C300.253 491.187 301.22 491.48 302.446 491.48Z" fill="black"/>
<path d="M738.84 494.24C737.653 494.24 736.613 494.04 735.72 493.64C734.827 493.227 734.14 492.647 733.66 491.9C733.18 491.14 732.94 490.26 732.94 489.26V488.9C732.94 487.873 733.18 486.98 733.66 486.22C734.14 485.46 734.82 484.88 735.7 484.48C736.593 484.067 737.64 483.86 738.84 483.86C739.92 483.86 740.893 484.047 741.76 484.42C742.627 484.78 743.3 485.287 743.78 485.94C744.273 486.58 744.52 487.307 744.52 488.12V488.2H742.54V488.12C742.54 487.64 742.38 487.213 742.06 486.84C741.753 486.453 741.313 486.153 740.74 485.94C740.18 485.727 739.547 485.62 738.84 485.62C737.613 485.62 736.653 485.913 735.96 486.5C735.267 487.073 734.92 487.88 734.92 488.92V489.24C734.92 490.253 735.267 491.047 735.96 491.62C736.653 492.193 737.613 492.48 738.84 492.48C739.56 492.48 740.2 492.373 740.76 492.16C741.32 491.947 741.753 491.653 742.06 491.28C742.38 490.907 742.54 490.48 742.54 490V489.92H744.52V490C744.52 490.827 744.28 491.56 743.8 492.2C743.32 492.84 742.647 493.34 741.78 493.7C740.927 494.06 739.947 494.24 738.84 494.24ZM761.178 483.86C762.792 483.86 764.025 484.293 764.878 485.16C765.732 486.013 766.158 487.253 766.158 488.88V494H764.238V488.88C764.238 487.827 763.965 487.02 763.418 486.46C762.872 485.9 762.092 485.62 761.078 485.62C760.305 485.62 759.585 485.807 758.918 486.18C758.265 486.553 757.765 487.047 757.418 487.66C757.485 488.087 757.518 488.493 757.518 488.88V494H755.618V488.88C755.618 487.84 755.345 487.04 754.798 486.48C754.252 485.907 753.472 485.62 752.458 485.62C751.685 485.62 750.978 485.807 750.338 486.18C749.698 486.54 749.218 487.027 748.898 487.64V494H746.998V484.1H748.778L748.838 485.38C749.318 484.887 749.878 484.513 750.518 484.26C751.172 483.993 751.878 483.86 752.638 483.86C753.625 483.86 754.472 484.033 755.178 484.38C755.885 484.713 756.432 485.207 756.818 485.86C757.338 485.22 757.965 484.727 758.698 484.38C759.445 484.033 760.272 483.86 761.178 483.86ZM780.066 480.08V494H778.286L778.226 492.86C777.2 493.78 775.88 494.24 774.266 494.24C773.093 494.24 772.073 494.04 771.206 493.64C770.34 493.227 769.673 492.64 769.206 491.88C768.74 491.12 768.506 490.227 768.506 489.2V488.88C768.506 487.853 768.74 486.967 769.206 486.22C769.673 485.46 770.34 484.88 771.206 484.48C772.073 484.067 773.093 483.86 774.266 483.86C775.026 483.86 775.733 483.973 776.386 484.2C777.053 484.427 777.64 484.753 778.146 485.18V480.08H780.066ZM774.446 492.48C775.233 492.48 775.953 492.34 776.606 492.06C777.26 491.767 777.773 491.373 778.146 490.88V487.2C777.773 486.72 777.26 486.34 776.606 486.06C775.953 485.767 775.233 485.62 774.446 485.62C773.206 485.62 772.233 485.907 771.526 486.48C770.833 487.053 770.486 487.853 770.486 488.88V489.2C770.486 490.213 770.84 491.013 771.546 491.6C772.253 492.187 773.22 492.48 774.446 492.48Z" fill="black"/>
<path d="M139.14 372.9C138.62 372.9 138.127 372.86 137.66 372.78C137.193 372.687 136.627 372.553 135.96 372.38C135.333 372.22 134.807 372.1 134.38 372.02C133.953 371.94 133.507 371.9 133.04 371.9C132.08 371.9 131.073 372.133 130.02 372.6V370.8C131.047 370.333 132.06 370.1 133.06 370.1C133.527 370.1 133.973 370.147 134.4 370.24C134.84 370.32 135.36 370.44 135.96 370.6C136.6 370.773 137.16 370.907 137.64 371C138.12 371.08 138.627 371.12 139.16 371.12C140.2 371.12 141.247 370.913 142.3 370.5V372.28C141.22 372.693 140.167 372.9 139.14 372.9Z" fill="black"/>
<path d="M132.72 394.6L141.26 396.1V397.76L132.72 396.26V394.6Z" fill="black"/>
<path d="M297.14 378.18L291.64 384.44L297.14 390.7V391H294.78L290.2 385.74L285.6 391H283.24V390.7L288.74 384.44L283.24 378.18V377.88H285.6L290.2 383.14L294.8 377.88H297.14V378.18Z" fill="black"/>
<path d="M367.88 391.24C366.347 391.24 365.007 390.973 363.86 390.44C362.713 389.893 361.827 389.12 361.2 388.12C360.587 387.12 360.28 385.953 360.28 384.62V384.28C360.28 382.947 360.587 381.78 361.2 380.78C361.827 379.78 362.713 379.007 363.86 378.46C365.007 377.913 366.347 377.64 367.88 377.64C369.267 377.64 370.513 377.873 371.62 378.34C372.74 378.807 373.613 379.453 374.24 380.28C374.88 381.093 375.2 382.007 375.2 383.02V383.2H373.18V383.02C373.18 382.353 372.953 381.753 372.5 381.22C372.047 380.687 371.413 380.267 370.6 379.96C369.8 379.653 368.893 379.5 367.88 379.5C366.093 379.5 364.713 379.913 363.74 380.74C362.78 381.567 362.3 382.74 362.3 384.26V384.64C362.3 386.16 362.78 387.333 363.74 388.16C364.713 388.973 366.093 389.38 367.88 389.38C368.907 389.38 369.82 389.233 370.62 388.94C371.433 388.633 372.06 388.213 372.5 387.68C372.953 387.147 373.18 386.547 373.18 385.88V385.68H375.2V385.88C375.2 386.893 374.88 387.807 374.24 388.62C373.613 389.433 372.74 390.073 371.62 390.54C370.513 391.007 369.267 391.24 367.88 391.24Z" fill="black"/>
<path d="M453 377.88V378.18L446.84 391H444.56L438.4 378.18V377.88H440.44L445.7 389.1L450.96 377.88H453Z" fill="black"/>
<path d="M528.28 384.28C528.973 384.547 529.5 384.927 529.86 385.42C530.233 385.9 530.42 386.48 530.42 387.16V387.38C530.42 388.487 529.993 389.367 529.14 390.02C528.3 390.673 527.173 391 525.76 391H517.84V377.88H525.34C526.807 377.88 527.947 378.173 528.76 378.76C529.587 379.333 530 380.147 530 381.2V381.44C530 382.067 529.853 382.62 529.56 383.1C529.267 383.58 528.84 383.973 528.28 384.28ZM519.84 379.66V383.48H525.32C527.093 383.48 527.98 382.88 527.98 381.68V381.44C527.98 380.867 527.753 380.427 527.3 380.12C526.847 379.813 526.193 379.66 525.34 379.66H519.84ZM528.4 387.1C528.4 385.887 527.507 385.28 525.72 385.28H519.84V389.22H525.72C526.56 389.22 527.213 389.053 527.68 388.72C528.16 388.373 528.4 387.907 528.4 387.32V387.1Z" fill="black"/>
<path d="M606.54 377.88V391H604.58L595.78 380.66V391H593.84V377.88H595.8L604.6 388.2V377.88H606.54Z" fill="black"/>
<path d="M685.74 391H683.76V380.44L678.32 391H676.26L670.82 380.42V391H668.84V377.88H671.64L677.3 388.76L682.96 377.88H685.74V391Z" fill="black"/>
<path d="M756 400.48V400.78L754.2 405.86H752.36L753.82 400.48H756Z" fill="black"/>
<path d="M832.34 404.24C831.98 404.24 831.687 404.127 831.46 403.9C831.233 403.673 831.12 403.387 831.12 403.04C831.12 402.693 831.233 402.407 831.46 402.18C831.687 401.953 831.98 401.84 832.34 401.84C832.7 401.84 832.993 401.953 833.22 402.18C833.447 402.407 833.56 402.693 833.56 403.04C833.56 403.387 833.447 403.673 833.22 403.9C832.993 404.127 832.7 404.24 832.34 404.24Z" fill="black"/>
<path d="M838.2 375.3V377.58L826.5 381.56H826.22V379.8L836.04 376.44L826.22 373.1V371.34H826.5L838.2 375.3Z" fill="black"/>
<path d="M760.1 373.1L750.28 376.44L760.1 379.8V381.56H759.82L748.12 377.58V375.3L759.82 371.34H760.1V373.1Z" fill="black"/>
<path d="M252.8 321.24C250.68 321.24 249.073 320.873 247.98 320.14C246.9 319.393 246.36 318.307 246.36 316.88V316.68H248.36V316.88C248.36 318.587 249.873 319.44 252.9 319.44C254.247 319.44 255.273 319.273 255.98 318.94C256.687 318.607 257.04 318.113 257.04 317.46V317.3C257.04 316.74 256.813 316.32 256.36 316.04C255.92 315.76 255.133 315.547 254 315.4L251.02 315C249.567 314.813 248.473 314.44 247.74 313.88C247.02 313.307 246.66 312.54 246.66 311.58V311.38C246.66 310.207 247.18 309.293 248.22 308.64C249.26 307.973 250.727 307.64 252.62 307.64C254.633 307.64 256.16 308 257.2 308.72C258.253 309.44 258.78 310.487 258.78 311.86V312.06H256.8V311.86C256.8 310.247 255.407 309.44 252.62 309.44C251.34 309.44 250.36 309.607 249.68 309.94C249.013 310.26 248.68 310.727 248.68 311.34V311.5C248.68 311.993 248.893 312.373 249.32 312.64C249.747 312.907 250.46 313.107 251.46 313.24L254.46 313.62C256.047 313.82 257.207 314.207 257.94 314.78C258.687 315.353 259.06 316.167 259.06 317.22V317.42C259.06 318.633 258.52 319.573 257.44 320.24C256.36 320.907 254.813 321.24 252.8 321.24Z" fill="black"/>
<path d="M328.98 307.88C331.353 307.88 333.153 308.427 334.38 309.52C335.62 310.613 336.24 312.207 336.24 314.3V314.6C336.24 316.693 335.62 318.287 334.38 319.38C333.153 320.46 331.353 321 328.98 321H322.84V307.88H328.98ZM328.98 319.22C332.473 319.22 334.22 317.687 334.22 314.62V314.28C334.22 312.76 333.773 311.613 332.88 310.84C332 310.053 330.693 309.66 328.96 309.66H324.84V319.22H328.98Z" fill="black"/>
<path d="M412.12 307.88V309.66H402.84V313.72H411.72V315.5H402.84V321H400.84V307.88H412.12Z" fill="black"/>
<path d="M489.22 312.54V312.42C489.22 311.887 488.987 311.4 488.52 310.96C488.067 310.507 487.44 310.153 486.64 309.9C485.84 309.633 484.96 309.5 484 309.5C482.213 309.5 480.813 309.92 479.8 310.76C478.8 311.6 478.3 312.767 478.3 314.26V314.64C478.3 316.173 478.793 317.347 479.78 318.16C480.767 318.973 482.173 319.38 484 319.38C486.267 319.38 488.02 318.727 489.26 317.42V315.9H482.32V314.1H491.24V321H489.44L489.34 319.4C488.033 320.627 486.24 321.24 483.96 321.24C482.387 321.24 481.02 320.973 479.86 320.44C478.713 319.907 477.827 319.14 477.2 318.14C476.587 317.14 476.28 315.967 476.28 314.62V314.28C476.28 312.96 476.593 311.8 477.22 310.8C477.86 309.787 478.76 309.007 479.92 308.46C481.08 307.913 482.433 307.64 483.98 307.64C485.393 307.64 486.647 307.84 487.74 308.24C488.847 308.64 489.707 309.207 490.32 309.94C490.933 310.66 491.24 311.487 491.24 312.42V312.54H489.22Z" fill="black"/>
<path d="M557.84 307.88V313.54H566.54V307.88H568.54V321H566.54V315.34H557.84V321H555.84V307.88H557.84Z" fill="black"/>
<path d="M639.2 321.24C637.96 321.24 636.88 321.013 635.96 320.56C635.04 320.093 634.327 319.44 633.82 318.6C633.327 317.747 633.08 316.753 633.08 315.62V314.74H635.06V315.62C635.06 316.78 635.433 317.7 636.18 318.38C636.927 319.047 637.933 319.38 639.2 319.38C640.507 319.38 641.52 319.053 642.24 318.4C642.973 317.747 643.34 316.827 643.34 315.64V309.66H636.76V307.88H645.34V315.6C645.34 316.733 645.087 317.727 644.58 318.58C644.087 319.433 643.373 320.093 642.44 320.56C641.52 321.013 640.44 321.24 639.2 321.24Z" fill="black"/>
<path d="M723.02 308.18L716.3 313.7L722.82 320.7V321H720.4L714.74 314.96L711.84 317.28V321H709.84V307.88H711.84V314.8L720.36 307.88H723.02V308.18Z" fill="black"/>
<path d="M789.84 307.88V319.22H799.5V321H787.84V307.88H789.84Z" fill="black"/>
<path d="M873.2 331.48V331.78L871.4 336.86H869.56L871.02 331.48H873.2ZM871.74 326.8C871.38 326.8 871.087 326.687 870.86 326.46C870.633 326.233 870.52 325.947 870.52 325.6C870.52 325.253 870.633 324.967 870.86 324.74C871.087 324.513 871.38 324.4 871.74 324.4C872.1 324.4 872.393 324.513 872.62 324.74C872.847 324.967 872.96 325.253 872.96 325.6C872.96 325.947 872.847 326.233 872.62 326.46C872.393 326.687 872.1 326.8 871.74 326.8Z" fill="black"/>
<path d="M947.68 330.16L949.48 325.08H951.32L949.86 330.46H947.68V330.16Z" fill="black"/>
<path d="M1021.48 319.58H1023.46L1032.58 334.98V335.3H1030.6L1021.48 319.9V319.58Z" fill="black"/>
<path d="M913.6 389.58H915.58V389.9L906.46 405.3H904.48V404.98L913.6 389.58Z" fill="black"/>
<path d="M1029.44 449.3V449.6H1014.74V449.3L1021.94 436.88H1022.24L1029.44 449.3Z" fill="black"/>
<path d="M1015.16 481.28H1029.86V481.58L1022.66 494H1022.36L1015.16 481.58V481.28Z" fill="black"/>
<path d="M946.438 491.1L934.818 484.62V484.32L946.438 477.78H946.738V491.1H946.438Z" fill="black"/>
<path d="M1098.56 477.78L1110.18 484.32V484.62L1098.56 491.1H1098.26V477.78H1098.56Z" fill="black"/>
<path d="M908.26 373.8C908.26 373.027 908.413 372.42 908.72 371.98C909.04 371.527 909.613 371.087 910.44 370.66C911.267 370.233 911.82 369.88 912.1 369.6C912.393 369.307 912.54 368.967 912.54 368.58V368.4C912.54 367.773 912.253 367.287 911.68 366.94C911.12 366.58 910.32 366.4 909.28 366.4C908.187 366.4 907.333 366.613 906.72 367.04C906.107 367.467 905.8 368.06 905.8 368.82V369.24H903.88V368.82C903.88 367.527 904.36 366.507 905.32 365.76C906.28 365.013 907.593 364.64 909.26 364.64C910.26 364.64 911.16 364.8 911.96 365.12C912.76 365.44 913.387 365.887 913.84 366.46C914.293 367.02 914.52 367.653 914.52 368.36V368.64C914.52 369.253 914.327 369.8 913.94 370.28C913.553 370.747 912.92 371.207 912.04 371.66C911.48 371.953 911.06 372.207 910.78 372.42C910.5 372.62 910.307 372.827 910.2 373.04C910.093 373.24 910.04 373.493 910.04 373.8V374.36H908.26V373.8ZM909.16 378.24C908.8 378.24 908.5 378.133 908.26 377.92C908.033 377.693 907.92 377.4 907.92 377.04C907.92 376.68 908.033 376.393 908.26 376.18C908.5 375.953 908.8 375.84 909.16 375.84C909.52 375.84 909.813 375.953 910.04 376.18C910.267 376.393 910.38 376.68 910.38 377.04C910.38 377.4 910.267 377.693 910.04 377.92C909.813 378.133 909.52 378.24 909.16 378.24Z" fill="black"/>
<path d="M1027.92 293.58V309.3H1026.24V293.58H1027.92Z" fill="black"/>
<path d="M944.68 304.16L946.48 299.08H948.32L946.86 304.46H944.68V304.16ZM949.66 304.16L951.46 299.08H953.3L951.84 304.46H949.66V304.16Z" fill="black"/>
<path d="M871.74 308.24C871.38 308.24 871.087 308.127 870.86 307.9C870.633 307.673 870.52 307.387 870.52 307.04C870.52 306.693 870.633 306.407 870.86 306.18C871.087 305.953 871.38 305.84 871.74 305.84C872.1 305.84 872.393 305.953 872.62 306.18C872.847 306.407 872.96 306.693 872.96 307.04C872.96 307.387 872.847 307.673 872.62 307.9C872.393 308.127 872.1 308.24 871.74 308.24ZM871.74 300.8C871.38 300.8 871.087 300.687 870.86 300.46C870.633 300.233 870.52 299.947 870.52 299.6C870.52 299.253 870.633 298.967 870.86 298.74C871.087 298.513 871.38 298.4 871.74 298.4C872.1 298.4 872.393 298.513 872.62 298.74C872.847 298.967 872.96 299.253 872.96 299.6C872.96 299.947 872.847 300.233 872.62 300.46C872.393 300.687 872.1 300.8 871.74 300.8Z" fill="black"/>
<path d="M241.1 241.88V242.18L236.24 255H233.82L229.76 244.3L225.7 255H223.28L218.4 242.18V241.88H220.44L224.5 252.84L228.68 241.88H230.84L235.02 252.82L239.06 241.88H241.1Z" fill="black"/>
<path d="M312 241.88V243.66H302.84V247.54H311.6V249.32H302.84V253.22H312V255H300.84V241.88H312Z" fill="black"/>
<path d="M389.68 246.08C389.68 247.173 389.287 248.06 388.5 248.74C387.727 249.42 386.66 249.793 385.3 249.86L389.62 254.7V255H387.34L382.72 249.86H378.84V255H376.84V241.88H384.92C386.4 241.88 387.56 242.233 388.4 242.94C389.253 243.633 389.68 244.593 389.68 245.82V246.08ZM387.66 245.76C387.66 245.093 387.413 244.58 386.92 244.22C386.44 243.847 385.76 243.66 384.88 243.66H378.84V248.1H384.88C385.76 248.1 386.44 247.92 386.92 247.56C387.413 247.187 387.66 246.667 387.66 246V245.76Z" fill="black"/>
<path d="M454.24 243.66V241.88H467.58V243.66H461.9V255H459.92V243.66H454.24Z" fill="black"/>
<path d="M546.38 242.18L540.26 249.68V255H538.28V249.68L532.14 242.18V241.88H534.36L539.26 247.82L544.16 241.88H546.38V242.18Z" fill="black"/>
<path d="M615.92 255.24C614.68 255.24 613.58 255 612.62 254.52C611.673 254.027 610.94 253.34 610.42 252.46C609.9 251.58 609.64 250.56 609.64 249.4V241.88H611.64V249.44C611.64 250.667 612.02 251.633 612.78 252.34C613.54 253.033 614.587 253.38 615.92 253.38C617.253 253.38 618.3 253.033 619.06 252.34C619.833 251.633 620.22 250.667 620.22 249.44V241.88H622.22V249.4C622.22 250.56 621.953 251.58 621.42 252.46C620.9 253.34 620.167 254.027 619.22 254.52C618.273 255 617.173 255.24 615.92 255.24Z" fill="black"/>
<path d="M693.98 241.88V255H692V241.88H693.98Z" fill="black"/>
<path d="M770.78 255.24C769.273 255.24 767.953 254.967 766.82 254.42C765.687 253.873 764.813 253.1 764.2 252.1C763.587 251.1 763.28 249.927 763.28 248.58V248.32C763.28 246.973 763.587 245.8 764.2 244.8C764.813 243.787 765.687 243.007 766.82 242.46C767.953 241.913 769.273 241.64 770.78 241.64C772.287 241.64 773.6 241.913 774.72 242.46C775.853 243.007 776.727 243.787 777.34 244.8C777.953 245.8 778.26 246.973 778.26 248.32V248.58C778.26 249.927 777.953 251.1 777.34 252.1C776.727 253.1 775.853 253.873 774.72 254.42C773.6 254.967 772.287 255.24 770.78 255.24ZM770.78 253.38C772.5 253.38 773.84 252.96 774.8 252.12C775.76 251.28 776.24 250.113 776.24 248.62V248.3C776.24 246.793 775.76 245.62 774.8 244.78C773.84 243.927 772.5 243.5 770.78 243.5C769.06 243.5 767.713 243.927 766.74 244.78C765.78 245.62 765.3 246.793 765.3 248.3V248.62C765.3 250.113 765.78 251.28 766.74 252.12C767.713 252.96 769.06 253.38 770.78 253.38Z" fill="black"/>
<path d="M849.92 241.88C851.387 241.88 852.547 242.233 853.4 242.94C854.253 243.633 854.68 244.573 854.68 245.76V246C854.68 247.187 854.253 248.133 853.4 248.84C852.547 249.533 851.387 249.88 849.92 249.88H843.84V255H841.84V241.88H849.92ZM849.88 248.1C850.76 248.1 851.44 247.92 851.92 247.56C852.413 247.187 852.66 246.667 852.66 246V245.76C852.66 245.093 852.413 244.58 851.92 244.22C851.44 243.847 850.76 243.66 849.88 243.66H843.84V248.1H849.88Z" fill="black"/>
<path d="M1127.32 263H1110.12L1114.22 267.08V267.42H1112.28L1107.12 262.26V261.94L1112.28 256.78H1114.22V257.1L1110.14 261.18H1127.32V263Z" fill="black"/>
<path d="M1122.76 397.12V399.08H1122.44L1118.24 394.86V403.78H1116.48V394.86L1112.26 399.08H1111.94V397.12L1117.2 391.86H1117.5L1122.76 397.12Z" fill="black"/>
<path d="M38.76 397.12V399.08H38.44L34.24 394.86V403.78H32.48V394.86L28.26 399.08H27.94V397.12L33.2 391.86H33.5L38.76 397.12Z" fill="black"/>
<path d="M38.76 314.12V316.08H38.44L34.24 311.86V320.78H32.48V311.86L28.26 316.08H27.94V314.12L33.2 308.86H33.5L38.76 314.12Z" fill="black"/>
<path d="M38.46 323.16V324.74H28.82V323.16H38.46Z" fill="black"/>
<path d="M49.6 253.94V254.26L44.44 259.42H42.5V259.08L46.6 255H29.4V253.18H46.58L42.5 249.1V248.78H44.44L49.6 253.94Z" fill="black"/>
<path d="M54.92 246.58V262.3H53.24V246.58H54.92Z" fill="black"/>
<path d="M1126.28 185.94H1117.06L1121.22 190.08V190.42H1119.28L1114.12 185.26V184.94L1119.28 179.78H1121.22V180.1L1117.08 184.24H1126.28V185.94Z" fill="black"/>
<path d="M930.02 252.58V254.3H925.54V266.58H930.02V268.3H923.84V252.58H930.02Z" fill="black"/>
<path d="M926.5 233.16C926.5 234.44 925.947 235.2 924.84 235.44C925.947 235.68 926.5 236.44 926.5 237.72V240.28C926.5 240.693 926.64 241.013 926.92 241.24C927.2 241.467 927.593 241.58 928.1 241.58H930.76V243.3H927.76C926.8 243.3 926.027 243.047 925.44 242.54C924.867 242.033 924.58 241.353 924.58 240.5V237.6C924.58 237.187 924.44 236.867 924.16 236.64C923.893 236.413 923.507 236.3 923 236.3H921.5V234.58H923C923.507 234.58 923.893 234.467 924.16 234.24C924.44 234.013 924.58 233.693 924.58 233.28V230.38C924.58 229.527 924.867 228.847 925.44 228.34C926.027 227.833 926.8 227.58 927.76 227.58H930.76V229.3H928.1C927.593 229.3 927.2 229.413 926.92 229.64C926.64 229.867 926.5 230.187 926.5 230.6V233.16Z" fill="black"/>
<path d="M1009.38 234.58V236.3H1007.88C1007.37 236.3 1006.98 236.413 1006.7 236.64C1006.43 236.867 1006.3 237.187 1006.3 237.6V240.5C1006.3 241.353 1006.01 242.033 1005.42 242.54C1004.85 243.047 1004.08 243.3 1003.12 243.3H1000.12V241.58H1002.78C1003.29 241.58 1003.68 241.467 1003.96 241.24C1004.24 241.013 1004.38 240.693 1004.38 240.28V237.72C1004.38 236.44 1004.93 235.68 1006.04 235.44C1004.93 235.2 1004.38 234.44 1004.38 233.16V230.6C1004.38 230.187 1004.24 229.867 1003.96 229.64C1003.68 229.413 1003.29 229.3 1002.78 229.3H1000.12V227.58H1003.12C1004.08 227.58 1004.85 227.833 1005.42 228.34C1006.01 228.847 1006.3 229.527 1006.3 230.38V233.28C1006.3 233.693 1006.43 234.013 1006.7 234.24C1006.98 234.467 1007.37 234.58 1007.88 234.58H1009.38Z" fill="black"/>
<path d="M1001.12 266.58H1005.6V254.3H1001.12V252.58H1007.3V268.3H1001.12V266.58Z" fill="black"/>
<path d="M207.024 189.576V191H197.28V189.72L201.904 187.048C202.811 186.525 203.483 186.104 203.92 185.784C204.357 185.453 204.651 185.149 204.8 184.872C204.96 184.595 205.04 184.264 205.04 183.88V183.72C205.04 183.101 204.779 182.627 204.256 182.296C203.744 181.965 203.003 181.8 202.032 181.8C201.029 181.8 200.267 181.976 199.744 182.328C199.232 182.68 198.976 183.192 198.976 183.864V184.184H197.376V183.848C197.376 182.707 197.776 181.832 198.576 181.224C199.376 180.616 200.517 180.312 202 180.312C203.451 180.312 204.587 180.611 205.408 181.208C206.229 181.805 206.64 182.627 206.64 183.672V183.832C206.64 184.397 206.528 184.893 206.304 185.32C206.08 185.747 205.691 186.179 205.136 186.616C204.592 187.053 203.792 187.576 202.736 188.184L200.304 189.576H207.024Z" fill="black"/>
<path d="M279.912 184.664C281.331 184.707 282.413 184.989 283.16 185.512C283.917 186.024 284.296 186.739 284.296 187.656V187.864C284.296 188.941 283.864 189.768 283 190.344C282.136 190.909 280.877 191.192 279.224 191.192C277.613 191.181 276.365 190.899 275.48 190.344C274.605 189.789 274.168 189.005 274.168 187.992V187.88H275.752V187.992C275.752 188.525 276.061 188.947 276.68 189.256C277.299 189.555 278.152 189.704 279.24 189.704C280.381 189.704 281.245 189.555 281.832 189.256C282.419 188.947 282.712 188.493 282.712 187.896V187.704C282.712 186.584 281.571 186.024 279.288 186.024H277.56V184.616L281.512 181.928H274.36V180.504H284.04V181.928L279.912 184.664Z" fill="black"/>
<path d="M283.72 165.168V165.04C283.72 164.293 283.469 163.728 282.968 163.344C282.467 162.949 281.741 162.752 280.792 162.752C279.821 162.752 279.075 162.933 278.552 163.296C278.04 163.659 277.784 164.187 277.784 164.88V166.576H282.552V167.936H277.784V169.136C277.784 169.755 277.624 170.251 277.304 170.624H285.32V172H274.04V170.624H274.792C275.731 170.624 276.2 170.16 276.2 169.232V167.936H274.04V166.576H276.2V164.864C276.2 163.744 276.605 162.875 277.416 162.256C278.227 161.627 279.357 161.312 280.808 161.312C282.259 161.312 283.373 161.637 284.152 162.288C284.931 162.928 285.325 163.845 285.336 165.04V165.168H283.72Z" fill="black"/>
<path d="M363.296 188.616H360.48V191H358.896V188.616H351.248V187.176C352.059 185.917 352.72 184.765 353.232 183.72C353.744 182.664 354.171 181.592 354.512 180.504H356.192V180.744C355.509 182.813 354.475 184.957 353.088 187.176H358.896V182.36H360.48V187.176H363.296V188.616Z" fill="black"/>
<path d="M358.16 166.112C360.56 166.368 361.76 167.179 361.76 168.544V168.704C361.76 169.579 361.376 170.267 360.608 170.768C359.84 171.259 358.736 171.547 357.296 171.632V172.96H355.776V171.632C354.315 171.547 353.2 171.253 352.432 170.752C351.664 170.251 351.28 169.552 351.28 168.656V168.512H352.848V168.656C352.848 169.712 354.139 170.24 356.72 170.24C359.024 170.24 360.176 169.787 360.176 168.88V168.72C360.176 168.464 360.107 168.261 359.968 168.112C359.829 167.963 359.595 167.845 359.264 167.76C358.933 167.664 358.459 167.584 357.84 167.52L355.104 167.248C353.867 167.131 352.96 166.875 352.384 166.48C351.819 166.075 351.536 165.509 351.536 164.784V164.624C351.536 163.813 351.904 163.173 352.64 162.704C353.387 162.224 354.432 161.947 355.776 161.872V160.528H357.296V161.888C358.672 161.973 359.723 162.261 360.448 162.752C361.173 163.232 361.536 163.893 361.536 164.736V164.864H359.968V164.736C359.968 164.267 359.653 163.904 359.024 163.648C358.405 163.392 357.515 163.264 356.352 163.264C355.307 163.264 354.501 163.371 353.936 163.584C353.381 163.787 353.104 164.085 353.104 164.48V164.64C353.104 164.875 353.173 165.067 353.312 165.216C353.461 165.365 353.701 165.488 354.032 165.584C354.373 165.68 354.848 165.76 355.456 165.824L358.16 166.112Z" fill="black"/>
<path d="M428.568 166.576C427.619 166.576 426.856 166.347 426.28 165.888C425.715 165.429 425.432 164.821 425.432 164.064V163.904C425.432 163.136 425.715 162.528 426.28 162.08C426.856 161.621 427.619 161.392 428.568 161.392C429.517 161.392 430.269 161.621 430.824 162.08C431.389 162.528 431.672 163.136 431.672 163.904V164.064C431.672 164.821 431.389 165.429 430.824 165.888C430.259 166.347 429.507 166.576 428.568 166.576ZM428.552 165.44C429.085 165.44 429.507 165.317 429.816 165.072C430.125 164.827 430.28 164.496 430.28 164.08V163.888C430.28 163.472 430.125 163.141 429.816 162.896C429.507 162.651 429.085 162.528 428.552 162.528C428.019 162.528 427.597 162.651 427.288 162.896C426.989 163.131 426.84 163.461 426.84 163.888V164.08C426.84 164.496 426.995 164.827 427.304 165.072C427.613 165.317 428.029 165.44 428.552 165.44ZM436.984 172.096C436.035 172.096 435.272 171.867 434.696 171.408C434.131 170.949 433.848 170.341 433.848 169.584V169.424C433.848 168.656 434.131 168.048 434.696 167.6C435.272 167.141 436.035 166.912 436.984 166.912C437.933 166.912 438.685 167.141 439.24 167.6C439.805 168.048 440.088 168.656 440.088 169.424V169.584C440.088 170.341 439.805 170.949 439.24 171.408C438.675 171.867 437.923 172.096 436.984 172.096ZM436.968 170.96C437.501 170.96 437.923 170.837 438.232 170.592C438.541 170.347 438.696 170.016 438.696 169.6V169.408C438.696 168.992 438.541 168.661 438.232 168.416C437.923 168.171 437.501 168.048 436.968 168.048C436.435 168.048 436.013 168.171 435.704 168.416C435.405 168.651 435.256 168.981 435.256 169.408V169.6C435.256 170.016 435.411 170.347 435.72 170.592C436.029 170.837 436.445 170.96 436.968 170.96ZM436.84 161.504H438.376V161.744L428.664 172H427.128V171.776L436.84 161.504Z" fill="black"/>
<path d="M595.272 166.304L591.848 169.584L595.096 171.776V172H592.728L590.696 170.624C590.003 171.189 589.315 171.595 588.632 171.84C587.949 172.075 587.155 172.192 586.248 172.192C585.363 172.192 584.584 172.08 583.912 171.856C583.24 171.621 582.723 171.296 582.36 170.88C581.997 170.453 581.816 169.957 581.816 169.392V169.216C581.816 168.032 582.605 167.157 584.184 166.592L584.536 166.464C583.843 165.995 583.373 165.595 583.128 165.264C582.893 164.933 582.776 164.533 582.776 164.064V163.92C582.776 163.408 582.947 162.955 583.288 162.56C583.629 162.165 584.115 161.861 584.744 161.648C585.373 161.424 586.099 161.312 586.92 161.312C587.72 161.312 588.424 161.424 589.032 161.648C589.651 161.861 590.131 162.165 590.472 162.56C590.813 162.955 590.984 163.408 590.984 163.92V164.064C590.984 164.683 590.797 165.2 590.424 165.616C590.051 166.021 589.448 166.368 588.616 166.656L587.864 166.928L590.552 168.72L593.272 166.096H595.272V166.304ZM584.36 164.016C584.36 164.229 584.44 164.427 584.6 164.608C584.76 164.789 585.059 165.029 585.496 165.328L586.424 165.952L587.64 165.52C588.333 165.275 588.797 165.056 589.032 164.864C589.277 164.661 589.4 164.405 589.4 164.096V163.984C589.4 163.579 589.176 163.269 588.728 163.056C588.291 162.832 587.667 162.72 586.856 162.72C586.045 162.72 585.427 162.821 585 163.024C584.573 163.227 584.36 163.52 584.36 163.904V164.016ZM586.232 170.784C586.851 170.784 587.411 170.704 587.912 170.544C588.424 170.373 588.92 170.112 589.4 169.76L585.976 167.44L584.952 167.808C584.355 168.021 583.944 168.224 583.72 168.416C583.496 168.608 583.384 168.853 583.384 169.152V169.328C583.384 169.787 583.629 170.144 584.12 170.4C584.621 170.656 585.325 170.784 586.232 170.784Z" fill="black"/>
<path d="M665.864 163.968L668.696 164.848L668.184 166.24L664.84 164.864L664.904 166.864H663.336L663.416 164.848L660.04 166.24L659.544 164.848L662.376 163.968L659.544 163.088L660.04 161.696L663.416 163.072L663.336 161.056H664.904L664.84 163.056L668.184 161.696L668.696 163.088L665.864 163.968Z" fill="black"/>
<path d="M514.304 165.824V166.048H512.72L510.448 162.88L508.192 166.048H506.608V165.824L509.76 161.504H511.136L514.304 165.824Z" fill="black"/>
<path d="M433.4 184.2C434.979 184.2 436.216 184.493 437.112 185.08C438.019 185.667 438.472 186.477 438.472 187.512V187.768C438.472 188.856 438.029 189.699 437.144 190.296C436.259 190.893 435.011 191.192 433.4 191.192C431.779 191.192 430.525 190.941 429.64 190.44C428.765 189.939 428.328 189.224 428.328 188.296V188.168H429.928V188.296C429.928 188.733 430.232 189.08 430.84 189.336C431.448 189.581 432.285 189.704 433.352 189.704C434.451 189.704 435.315 189.533 435.944 189.192C436.573 188.851 436.888 188.381 436.888 187.784V187.528C436.888 186.952 436.568 186.499 435.928 186.168C435.299 185.837 434.424 185.672 433.304 185.672C432.323 185.672 431.517 185.8 430.888 186.056C430.259 186.301 429.928 186.627 429.896 187.032H428.328L428.68 180.504H437.8V181.928H430.088L429.928 185.016C430.749 184.472 431.907 184.2 433.4 184.2Z" fill="black"/>
<path d="M510.672 184.408C512.261 184.408 513.483 184.68 514.336 185.224C515.189 185.757 515.616 186.536 515.616 187.56V187.784C515.616 188.851 515.163 189.688 514.256 190.296C513.36 190.893 512.128 191.192 510.56 191.192C509.451 191.192 508.485 191.032 507.664 190.712C506.853 190.392 506.229 189.933 505.792 189.336C505.365 188.739 505.152 188.035 505.152 187.224V184.568C505.152 183.235 505.621 182.195 506.56 181.448C507.509 180.691 508.821 180.312 510.496 180.312C511.499 180.312 512.373 180.445 513.12 180.712C513.867 180.979 514.437 181.363 514.832 181.864C515.237 182.355 515.44 182.936 515.44 183.608V183.736H513.856V183.608C513.856 183.043 513.557 182.6 512.96 182.28C512.363 181.96 511.541 181.8 510.496 181.8C509.28 181.8 508.347 182.035 507.696 182.504C507.056 182.973 506.736 183.651 506.736 184.536V185.528C507.664 184.781 508.976 184.408 510.672 184.408ZM514.032 187.624C514.032 186.461 512.907 185.88 510.656 185.88C509.728 185.88 508.923 185.992 508.24 186.216C507.557 186.429 507.056 186.739 506.736 187.144V187.24C506.736 188.008 507.072 188.611 507.744 189.048C508.416 189.485 509.36 189.704 510.576 189.704C511.664 189.704 512.512 189.544 513.12 189.224C513.728 188.904 514.032 188.445 514.032 187.848V187.624Z" fill="black"/>
<path d="M592.832 180.504V181.928C591.307 183.528 590.112 185.096 589.248 186.632C588.395 188.157 587.968 189.485 587.968 190.616V191H586.288V190.616C586.288 189.432 586.693 188.072 587.504 186.536C588.325 185 589.456 183.464 590.896 181.928H583.008V180.504H592.832Z" fill="black"/>
<path d="M668.336 185.592C668.997 185.816 669.493 186.125 669.824 186.52C670.165 186.915 670.336 187.389 670.336 187.944V188.12C670.336 190.168 668.501 191.192 664.832 191.192C661.163 191.192 659.328 190.168 659.328 188.12V187.944C659.328 187.389 659.493 186.915 659.824 186.52C660.165 186.125 660.667 185.816 661.328 185.592C660.827 185.368 660.448 185.08 660.192 184.728C659.936 184.365 659.808 183.955 659.808 183.496V183.32C659.808 182.723 660.016 182.195 660.432 181.736C660.848 181.277 661.435 180.925 662.192 180.68C662.949 180.435 663.829 180.312 664.832 180.312C665.835 180.312 666.715 180.435 667.472 180.68C668.229 180.925 668.816 181.277 669.232 181.736C669.648 182.195 669.856 182.723 669.856 183.32V183.496C669.856 183.955 669.728 184.365 669.472 184.728C669.216 185.08 668.837 185.368 668.336 185.592ZM661.376 183.448C661.376 183.992 661.653 184.392 662.208 184.648C662.773 184.904 663.648 185.032 664.832 185.032C666.005 185.032 666.869 184.904 667.424 184.648C667.989 184.392 668.272 183.992 668.272 183.448V183.32C668.272 182.275 667.125 181.752 664.832 181.752C662.528 181.752 661.376 182.275 661.376 183.32V183.448ZM668.752 188.056C668.752 187.491 668.443 187.085 667.824 186.84C667.216 186.584 666.219 186.456 664.832 186.456C663.445 186.456 662.443 186.584 661.824 186.84C661.216 187.085 660.912 187.491 660.912 188.056V188.184C660.912 188.728 661.227 189.128 661.856 189.384C662.485 189.629 663.477 189.752 664.832 189.752C666.187 189.752 667.179 189.629 667.808 189.384C668.437 189.128 668.752 188.728 668.752 188.184V188.056Z" fill="black"/>
<path d="M741.016 180.312C742.125 180.312 743.085 180.472 743.896 180.792C744.717 181.112 745.341 181.571 745.768 182.168C746.205 182.765 746.424 183.469 746.424 184.28V186.936C746.424 188.269 745.949 189.315 745 190.072C744.061 190.819 742.755 191.192 741.08 191.192C740.077 191.192 739.203 191.059 738.456 190.792C737.709 190.525 737.133 190.147 736.728 189.656C736.333 189.155 736.136 188.568 736.136 187.896V187.768H737.72V187.896C737.72 188.461 738.019 188.904 738.616 189.224C739.213 189.544 740.035 189.704 741.08 189.704C742.296 189.704 743.224 189.469 743.864 189C744.515 188.531 744.84 187.853 744.84 186.968V185.976C743.912 186.723 742.6 187.096 740.904 187.096C739.315 187.096 738.093 186.829 737.24 186.296C736.387 185.752 735.96 184.968 735.96 183.944V183.72C735.96 182.653 736.408 181.821 737.304 181.224C738.211 180.616 739.448 180.312 741.016 180.312ZM740.92 185.624C741.848 185.624 742.653 185.517 743.336 185.304C744.019 185.08 744.52 184.765 744.84 184.36V184.264C744.84 183.496 744.504 182.893 743.832 182.456C743.16 182.019 742.216 181.8 741 181.8C739.912 181.8 739.064 181.96 738.456 182.28C737.848 182.6 737.544 183.059 737.544 183.656V183.88C737.544 185.043 738.669 185.624 740.92 185.624Z" fill="black"/>
<path d="M744.56 173.104C743.483 173.083 742.544 172.848 741.744 172.4C740.944 171.963 740.331 171.355 739.904 170.576C739.477 169.787 739.264 168.864 739.264 167.808V165.696C739.264 164.629 739.472 163.701 739.888 162.912C740.315 162.123 740.923 161.515 741.712 161.088C742.512 160.651 743.461 160.421 744.56 160.4V161.76C743.355 161.813 742.421 162.181 741.76 162.864C741.109 163.547 740.784 164.496 740.784 165.712V167.776C740.784 168.992 741.109 169.947 741.76 170.64C742.421 171.323 743.355 171.685 744.56 171.728V173.104Z" fill="black"/>
<path d="M816.896 160.4C817.973 160.421 818.912 160.656 819.712 161.104C820.512 161.541 821.125 162.155 821.552 162.944C821.979 163.723 822.192 164.64 822.192 165.696V167.808C822.192 168.875 821.979 169.803 821.552 170.592C821.136 171.381 820.528 171.989 819.728 172.416C818.939 172.853 817.995 173.083 816.896 173.104V171.744C818.101 171.691 819.029 171.323 819.68 170.64C820.341 169.957 820.672 169.008 820.672 167.792V165.728C820.672 164.512 820.341 163.563 819.68 162.88C819.029 162.187 818.101 161.819 816.896 161.776V160.4Z" fill="black"/>
<path d="M819.56 191.192C818.493 191.192 817.549 191 816.728 190.616C815.917 190.232 815.283 189.693 814.824 189C814.376 188.307 814.152 187.512 814.152 186.616V184.904C814.152 183.997 814.376 183.197 814.824 182.504C815.283 181.811 815.917 181.272 816.728 180.888C817.549 180.504 818.493 180.312 819.56 180.312C820.616 180.312 821.549 180.504 822.36 180.888C823.171 181.272 823.8 181.811 824.248 182.504C824.696 183.197 824.92 183.997 824.92 184.904V186.616C824.92 187.523 824.696 188.323 824.248 189.016C823.8 189.699 823.171 190.232 822.36 190.616C821.549 191 820.616 191.192 819.56 191.192ZM819.56 189.704C820.733 189.704 821.656 189.432 822.328 188.888C823 188.344 823.336 187.592 823.336 186.632V184.888C823.336 183.939 822.995 183.187 822.312 182.632C821.64 182.077 820.717 181.8 819.544 181.8C818.36 181.8 817.427 182.077 816.744 182.632C816.072 183.176 815.736 183.928 815.736 184.888V186.632C815.736 187.592 816.072 188.344 816.744 188.888C817.427 189.432 818.365 189.704 819.56 189.704Z" fill="black"/>
<path d="M899.272 185.88V187.272H893.8V185.88H899.272Z" fill="black"/>
<path d="M978.28 183.288V184.712H968.776V183.288H978.28ZM978.28 186.792V188.216H968.776V186.792H978.28Z" fill="black"/>
<path d="M978.44 171.472H974.248V175.344H972.808V171.472H968.616V170.032H972.808V166.16H974.248V170.032H978.44V171.472Z" fill="black"/>
<path d="M900.368 172.928V174.192H892.656V172.928H900.368Z" fill="black"/>
<path d="M202.4 161.312C203.84 161.312 205.099 161.557 206.176 162.048C207.264 162.539 208.101 163.232 208.688 164.128C209.285 165.024 209.584 166.064 209.584 167.248V168.384C209.584 169.344 209.365 170.091 208.928 170.624C208.491 171.147 207.877 171.408 207.088 171.408C206.619 171.408 206.203 171.317 205.84 171.136C205.477 170.955 205.195 170.699 204.992 170.368C204.629 170.741 204.181 171.029 203.648 171.232C203.115 171.435 202.544 171.536 201.936 171.536C201.2 171.536 200.549 171.392 199.984 171.104C199.419 170.816 198.976 170.411 198.656 169.888C198.347 169.365 198.192 168.763 198.192 168.08V167.696C198.192 167.003 198.347 166.395 198.656 165.872C198.976 165.349 199.419 164.944 199.984 164.656C200.56 164.368 201.221 164.224 201.968 164.224C202.501 164.224 203.003 164.299 203.472 164.448C203.941 164.597 204.352 164.816 204.704 165.104L204.736 164.384H206.048V168.864C206.048 169.248 206.133 169.547 206.304 169.76C206.485 169.963 206.736 170.064 207.056 170.064C207.792 170.064 208.16 169.483 208.16 168.32V167.104C208.16 166.219 207.925 165.445 207.456 164.784C206.987 164.112 206.32 163.6 205.456 163.248C204.592 162.885 203.579 162.704 202.416 162.704C201.221 162.704 200.176 162.901 199.28 163.296C198.384 163.691 197.691 164.251 197.2 164.976C196.709 165.691 196.464 166.528 196.464 167.488V168.352C196.464 169.28 196.688 170.085 197.136 170.768C197.584 171.451 198.219 171.973 199.04 172.336C199.872 172.709 200.853 172.896 201.984 172.896H204.96V174.256H201.984C200.619 174.256 199.408 174.005 198.352 173.504C197.307 173.013 196.491 172.325 195.904 171.44C195.317 170.544 195.024 169.52 195.024 168.368V167.44C195.024 166.235 195.328 165.168 195.936 164.24C196.555 163.312 197.419 162.592 198.528 162.08C199.648 161.568 200.939 161.312 202.4 161.312ZM202.096 170.192C202.651 170.192 203.152 170.091 203.6 169.888C204.059 169.685 204.411 169.408 204.656 169.056V166.704C204.411 166.352 204.059 166.075 203.6 165.872C203.152 165.669 202.656 165.568 202.112 165.568C201.312 165.568 200.693 165.755 200.256 166.128C199.829 166.491 199.616 167.013 199.616 167.696V168.08C199.616 168.741 199.835 169.259 200.272 169.632C200.709 170.005 201.317 170.192 202.096 170.192Z" fill="black"/>
<path d="M223.056 174.76V174.616C223.056 174.051 222.896 173.549 222.576 173.112C222.267 172.675 221.824 172.339 221.248 172.104C220.683 171.869 220.027 171.752 219.28 171.752C218.384 171.752 217.627 171.917 217.008 172.248C216.389 172.579 215.936 173.064 215.648 173.704H221.264V174.984H215.328C215.317 175.091 215.312 175.251 215.312 175.464V176.056C215.312 176.248 215.317 176.387 215.328 176.472H221.264V177.752H215.616C215.893 178.403 216.341 178.899 216.96 179.24C217.589 179.581 218.368 179.752 219.296 179.752C220.437 179.752 221.349 179.496 222.032 178.984C222.715 178.461 223.056 177.768 223.056 176.904V176.744H224.624V176.904C224.624 177.715 224.395 178.451 223.936 179.112C223.477 179.763 222.843 180.275 222.032 180.648C221.232 181.011 220.325 181.192 219.312 181.192C217.968 181.192 216.827 180.888 215.888 180.28C214.96 179.661 214.325 178.819 213.984 177.752H212V176.472H213.76C213.749 176.376 213.744 176.237 213.744 176.056V175.464C213.744 175.251 213.749 175.091 213.76 174.984H212V173.704H214.016C214.357 172.648 214.992 171.821 215.92 171.224C216.859 170.616 217.989 170.312 219.312 170.312C220.325 170.312 221.232 170.499 222.032 170.872C222.843 171.235 223.477 171.747 223.936 172.408C224.395 173.059 224.624 173.795 224.624 174.616V174.76H223.056Z" fill="black"/>
<path d="M125.616 161.504L125.536 169.088H124.096L124.016 161.504H125.616ZM124.816 172.192C124.528 172.192 124.293 172.107 124.112 171.936C123.931 171.755 123.84 171.52 123.84 171.232C123.84 170.944 123.931 170.715 124.112 170.544C124.293 170.363 124.528 170.272 124.816 170.272C125.104 170.272 125.339 170.363 125.52 170.544C125.701 170.715 125.792 170.944 125.792 171.232C125.792 171.52 125.701 171.755 125.52 171.936C125.339 172.107 125.104 172.192 124.816 172.192Z" fill="black"/>
<path d="M53.28 165.152V166.592H49.248V169.216H47.808V166.592H43.776V165.152H47.808V162.432H49.248V165.152H53.28ZM43.776 170.336H53.28V171.76H43.776V170.336Z" fill="black"/>
<path d="M50.6 183.8C52.3067 184.056 53.16 184.717 53.16 185.784V185.992C53.16 186.344 53.0587 186.664 52.856 186.952C52.664 187.229 52.3867 187.459 52.024 187.64C52.376 187.96 52.552 188.328 52.552 188.744V188.952C52.552 189.656 52.1893 190.205 51.464 190.6C50.7387 190.995 49.7307 191.192 48.44 191.192C47.1387 191.192 46.1093 190.989 45.352 190.584C44.6053 190.179 44.232 189.619 44.232 188.904V188.744H45.752V188.904C45.752 189.256 45.9867 189.523 46.456 189.704C46.9253 189.875 47.608 189.96 48.504 189.96C50.1787 189.96 51.016 189.661 51.016 189.064V188.92C51.016 188.728 50.936 188.584 50.776 188.488C50.616 188.381 50.3173 188.296 49.88 188.232L46.44 187.704C44.7333 187.448 43.88 186.781 43.88 185.704V185.496C43.88 185.144 43.976 184.829 44.168 184.552C44.36 184.275 44.6373 184.045 45 183.864C44.6587 183.555 44.488 183.187 44.488 182.76V182.552C44.488 181.848 44.8507 181.299 45.576 180.904C46.3013 180.509 47.3093 180.312 48.6 180.312C49.9013 180.312 50.9253 180.515 51.672 180.92C52.4293 181.325 52.808 181.885 52.808 182.6V182.76H51.288V182.6C51.288 182.248 51.0533 181.987 50.584 181.816C50.1147 181.635 49.432 181.544 48.536 181.544C46.8613 181.544 46.024 181.837 46.024 182.424V182.568C46.024 182.771 46.104 182.925 46.264 183.032C46.4347 183.128 46.7333 183.208 47.16 183.272L50.6 183.8ZM50.312 186.92C50.4507 186.941 50.648 186.984 50.904 187.048C51.16 186.941 51.3413 186.819 51.448 186.68C51.5653 186.541 51.624 186.371 51.624 186.168V186.024C51.624 185.757 51.512 185.555 51.288 185.416C51.064 185.277 50.6747 185.165 50.12 185.08L46.728 184.584C46.568 184.563 46.376 184.52 46.152 184.456C45.8853 184.563 45.6933 184.685 45.576 184.824C45.4693 184.963 45.416 185.133 45.416 185.336V185.48C45.416 185.747 45.528 185.949 45.752 186.088C45.9867 186.227 46.376 186.339 46.92 186.424L50.312 186.92Z" fill="black"/>
<path d="M210.496 109.504V110.928H203.072V114.176H210.176V115.6H203.072V120H201.472V109.504H210.496ZM222.29 118.576V120H212.546V118.72L217.17 116.048C218.076 115.525 218.748 115.104 219.186 114.784C219.623 114.453 219.916 114.149 220.066 113.872C220.226 113.595 220.306 113.264 220.306 112.88V112.72C220.306 112.101 220.044 111.627 219.522 111.296C219.01 110.965 218.268 110.8 217.298 110.8C216.295 110.8 215.532 110.976 215.01 111.328C214.498 111.68 214.242 112.192 214.242 112.864V113.184H212.642V112.848C212.642 111.707 213.042 110.832 213.842 110.224C214.642 109.616 215.783 109.312 217.266 109.312C218.716 109.312 219.852 109.611 220.674 110.208C221.495 110.805 221.906 111.627 221.906 112.672V112.832C221.906 113.397 221.794 113.893 221.57 114.32C221.346 114.747 220.956 115.179 220.402 115.616C219.858 116.053 219.058 116.576 218.002 117.184L215.57 118.576H222.29Z" fill="black"/>
<path d="M293.496 109.504V110.928H286.072V114.176H293.176V115.6H286.072V120H284.472V109.504H293.496ZM301.178 113.664C302.596 113.707 303.679 113.989 304.426 114.512C305.183 115.024 305.562 115.739 305.562 116.656V116.864C305.562 117.941 305.13 118.768 304.266 119.344C303.402 119.909 302.143 120.192 300.49 120.192C298.879 120.181 297.631 119.899 296.746 119.344C295.871 118.789 295.434 118.005 295.434 116.992V116.88H297.018V116.992C297.018 117.525 297.327 117.947 297.946 118.256C298.564 118.555 299.418 118.704 300.506 118.704C301.647 118.704 302.511 118.555 303.098 118.256C303.684 117.947 303.978 117.493 303.978 116.896V116.704C303.978 115.584 302.836 115.024 300.554 115.024H298.826V113.616L302.778 110.928H295.626V109.504H305.306V110.928L301.178 113.664Z" fill="black"/>
<path d="M390.496 119.504V120.928H383.072V124.176H390.176V125.6H383.072V130H381.472V119.504H390.496ZM404.562 127.616H401.746V130H400.162V127.616H392.514V126.176C393.324 124.917 393.986 123.765 394.498 122.72C395.01 121.664 395.436 120.592 395.778 119.504H397.458V119.744C396.775 121.813 395.74 123.957 394.354 126.176H400.162V121.36H401.746V126.176H404.562V127.616Z" fill="black"/>
<path d="M366.608 99.904V106.64H359.872V99.904H366.608ZM365.424 101.104H361.072V105.44H365.424V101.104ZM377.108 99.904V106.64H370.372V99.904H377.108ZM375.924 101.104H371.572V105.44H375.924V101.104ZM387.608 99.904V106.64H380.872V99.904H387.608ZM386.424 101.104H382.072V105.44H386.424V101.104Z" fill="black"/>
<path d="M366.608 108.904V115.64H359.872V108.904H366.608ZM365.424 110.104H361.072V114.44H365.424V110.104ZM377.108 108.904V115.64H370.372V108.904H377.108ZM375.924 110.104H371.572V114.44H375.924V110.104ZM387.608 108.904V115.64H380.872V108.904H387.608ZM386.424 110.104H382.072V114.44H386.424V110.104Z" fill="black"/>
<path d="M452.496 109.504V110.928H445.072V114.176H452.176V115.6H445.072V120H443.472V109.504H452.496ZM459.666 113.2C461.244 113.2 462.482 113.493 463.378 114.08C464.284 114.667 464.738 115.477 464.738 116.512V116.768C464.738 117.856 464.295 118.699 463.41 119.296C462.524 119.893 461.276 120.192 459.666 120.192C458.044 120.192 456.791 119.941 455.906 119.44C455.031 118.939 454.594 118.224 454.594 117.296V117.168H456.194V117.296C456.194 117.733 456.498 118.08 457.106 118.336C457.714 118.581 458.551 118.704 459.618 118.704C460.716 118.704 461.58 118.533 462.21 118.192C462.839 117.851 463.154 117.381 463.154 116.784V116.528C463.154 115.952 462.834 115.499 462.194 115.168C461.564 114.837 460.69 114.672 459.57 114.672C458.588 114.672 457.783 114.8 457.154 115.056C456.524 115.301 456.194 115.627 456.162 116.032H454.594L454.946 109.504H464.066V110.928H456.354L456.194 114.016C457.015 113.472 458.172 113.2 459.666 113.2Z" fill="black"/>
<path d="M533.496 109.504V110.928H526.072V114.176H533.176V115.6H526.072V120H524.472V109.504H533.496ZM540.938 113.408C542.527 113.408 543.748 113.68 544.602 114.224C545.455 114.757 545.882 115.536 545.882 116.56V116.784C545.882 117.851 545.428 118.688 544.522 119.296C543.626 119.893 542.394 120.192 540.826 120.192C539.716 120.192 538.751 120.032 537.93 119.712C537.119 119.392 536.495 118.933 536.058 118.336C535.631 117.739 535.418 117.035 535.418 116.224V113.568C535.418 112.235 535.887 111.195 536.826 110.448C537.775 109.691 539.087 109.312 540.762 109.312C541.764 109.312 542.639 109.445 543.386 109.712C544.132 109.979 544.703 110.363 545.098 110.864C545.503 111.355 545.706 111.936 545.706 112.608V112.736H544.122V112.608C544.122 112.043 543.823 111.6 543.226 111.28C542.628 110.96 541.807 110.8 540.762 110.8C539.546 110.8 538.612 111.035 537.962 111.504C537.322 111.973 537.002 112.651 537.002 113.536V114.528C537.93 113.781 539.242 113.408 540.938 113.408ZM544.298 116.624C544.298 115.461 543.172 114.88 540.922 114.88C539.994 114.88 539.188 114.992 538.506 115.216C537.823 115.429 537.322 115.739 537.002 116.144V116.24C537.002 117.008 537.338 117.611 538.01 118.048C538.682 118.485 539.626 118.704 540.842 118.704C541.93 118.704 542.778 118.544 543.386 118.224C543.994 117.904 544.298 117.445 544.298 116.848V116.624Z" fill="black"/>
<path d="M635.496 118.504V119.928H628.072V123.176H635.176V124.6H628.072V129H626.472V118.504H635.496ZM647.098 118.504V119.928C645.572 121.528 644.378 123.096 643.514 124.632C642.66 126.157 642.234 127.485 642.234 128.616V129H640.554V128.616C640.554 127.432 640.959 126.072 641.77 124.536C642.591 123 643.722 121.464 645.162 119.928H637.274V118.504H647.098Z" fill="black"/>
<path d="M613.096 110.312L606.568 106.344V106.168L613.096 102.2H613.272V110.312H613.096ZM623.596 110.312L617.068 106.344V106.168L623.596 102.2H623.772V110.312H623.596Z" fill="black"/>
<path d="M692.4 102.2L698.928 106.168V106.344L692.4 110.312H692.224V102.2H692.4Z" fill="black"/>
<path d="M700.928 102.632H702.192V110.344H700.928V102.632Z" fill="black"/>
<path d="M705.928 102.632H707.192V110.344H705.928V102.632Z" fill="black"/>
<path d="M715.496 119.504V120.928H708.072V124.176H715.176V125.6H708.072V130H706.472V119.504H715.496ZM726.602 124.592C727.263 124.816 727.759 125.125 728.09 125.52C728.431 125.915 728.602 126.389 728.602 126.944V127.12C728.602 129.168 726.767 130.192 723.098 130.192C719.428 130.192 717.594 129.168 717.594 127.12V126.944C717.594 126.389 717.759 125.915 718.09 125.52C718.431 125.125 718.932 124.816 719.594 124.592C719.092 124.368 718.714 124.08 718.458 123.728C718.202 123.365 718.074 122.955 718.074 122.496V122.32C718.074 121.723 718.282 121.195 718.698 120.736C719.114 120.277 719.7 119.925 720.458 119.68C721.215 119.435 722.095 119.312 723.098 119.312C724.1 119.312 724.98 119.435 725.738 119.68C726.495 119.925 727.082 120.277 727.498 120.736C727.914 121.195 728.122 121.723 728.122 122.32V122.496C728.122 122.955 727.994 123.365 727.738 123.728C727.482 124.08 727.103 124.368 726.602 124.592ZM719.642 122.448C719.642 122.992 719.919 123.392 720.474 123.648C721.039 123.904 721.914 124.032 723.098 124.032C724.271 124.032 725.135 123.904 725.69 123.648C726.255 123.392 726.538 122.992 726.538 122.448V122.32C726.538 121.275 725.391 120.752 723.098 120.752C720.794 120.752 719.642 121.275 719.642 122.32V122.448ZM727.018 127.056C727.018 126.491 726.708 126.085 726.09 125.84C725.482 125.584 724.484 125.456 723.098 125.456C721.711 125.456 720.708 125.584 720.09 125.84C719.482 126.085 719.178 126.491 719.178 127.056V127.184C719.178 127.728 719.492 128.128 720.122 128.384C720.751 128.629 721.743 128.752 723.098 128.752C724.452 128.752 725.444 128.629 726.074 128.384C726.703 128.128 727.018 127.728 727.018 127.184V127.056Z" fill="black"/>
<path d="M796.496 118.504V119.928H789.072V123.176H796.176V124.6H789.072V129H787.472V118.504H796.496ZM803.282 118.312C804.391 118.312 805.351 118.472 806.162 118.792C806.983 119.112 807.607 119.571 808.034 120.168C808.471 120.765 808.69 121.469 808.69 122.28V124.936C808.69 126.269 808.215 127.315 807.266 128.072C806.327 128.819 805.02 129.192 803.346 129.192C802.343 129.192 801.468 129.059 800.722 128.792C799.975 128.525 799.399 128.147 798.994 127.656C798.599 127.155 798.402 126.568 798.402 125.896V125.768H799.986V125.896C799.986 126.461 800.284 126.904 800.882 127.224C801.479 127.544 802.3 127.704 803.346 127.704C804.562 127.704 805.49 127.469 806.13 127C806.78 126.531 807.106 125.853 807.106 124.968V123.976C806.178 124.723 804.866 125.096 803.17 125.096C801.58 125.096 800.359 124.829 799.506 124.296C798.652 123.752 798.226 122.968 798.226 121.944V121.72C798.226 120.653 798.674 119.821 799.57 119.224C800.476 118.616 801.714 118.312 803.282 118.312ZM803.186 123.624C804.114 123.624 804.919 123.517 805.602 123.304C806.284 123.08 806.786 122.765 807.106 122.36V122.264C807.106 121.496 806.77 120.893 806.098 120.456C805.426 120.019 804.482 119.8 803.266 119.8C802.178 119.8 801.33 119.96 800.722 120.28C800.114 120.6 799.81 121.059 799.81 121.656V121.88C799.81 123.043 800.935 123.624 803.186 123.624Z" fill="black"/>
<path d="M770.4 102.2L776.928 106.168V106.344L770.4 110.312H770.224V102.2H770.4ZM780.9 102.2L787.428 106.168V106.344L780.9 110.312H780.724V102.2H780.9Z" fill="black"/>
<path d="M1107.28 118.464V118.64H1099.22V118.464L1103.17 111.664H1103.34L1107.28 118.464Z" fill="black"/>
<path d="M1107.37 120.928V122.192H1099.66V120.928H1107.37Z" fill="black"/>
<path d="M854.496 109.504V110.928H847.072V114.176H854.176V115.6H847.072V120H845.472V109.504H854.496ZM861.33 120H859.762V111.872C859.25 112.16 858.583 112.304 857.762 112.304H855.954V110.816H857.634C858.359 110.816 858.892 110.709 859.234 110.496C859.586 110.283 859.762 109.952 859.762 109.504H861.33V120ZM870.123 120.192C869.056 120.192 868.112 120 867.291 119.616C866.48 119.232 865.845 118.693 865.387 118C864.939 117.307 864.715 116.512 864.715 115.616V113.904C864.715 112.997 864.939 112.197 865.387 111.504C865.845 110.811 866.48 110.272 867.291 109.888C868.112 109.504 869.056 109.312 870.123 109.312C871.179 109.312 872.112 109.504 872.923 109.888C873.733 110.272 874.363 110.811 874.811 111.504C875.259 112.197 875.483 112.997 875.483 113.904V115.616C875.483 116.523 875.259 117.323 874.811 118.016C874.363 118.699 873.733 119.232 872.923 119.616C872.112 120 871.179 120.192 870.123 120.192ZM870.123 118.704C871.296 118.704 872.219 118.432 872.891 117.888C873.563 117.344 873.899 116.592 873.899 115.632V113.888C873.899 112.939 873.557 112.187 872.875 111.632C872.203 111.077 871.28 110.8 870.107 110.8C868.923 110.8 867.989 111.077 867.307 111.632C866.635 112.176 866.299 112.928 866.299 113.888V115.632C866.299 116.592 866.635 117.344 867.307 117.888C867.989 118.432 868.928 118.704 870.123 118.704Z" fill="black"/>
<path d="M937.496 109.504V110.928H930.072V114.176H937.176V115.6H930.072V120H928.472V109.504H937.496ZM944.33 120H942.762V111.872C942.25 112.16 941.583 112.304 940.762 112.304H938.954V110.816H940.634C941.359 110.816 941.892 110.709 942.234 110.496C942.586 110.283 942.762 109.952 942.762 109.504H944.33V120ZM952.627 120H951.059V111.872C950.547 112.16 949.88 112.304 949.059 112.304H947.251V110.816H948.931C949.656 110.816 950.189 110.709 950.531 110.496C950.883 110.283 951.059 109.952 951.059 109.504H952.627V120Z" fill="black"/>
<path d="M1016.5 109.504V110.928H1009.07V114.176H1016.18V115.6H1009.07V120H1007.47V109.504H1016.5ZM1023.33 120H1021.76V111.872C1021.25 112.16 1020.58 112.304 1019.76 112.304H1017.95V110.816H1019.63C1020.36 110.816 1020.89 110.709 1021.23 110.496C1021.59 110.283 1021.76 109.952 1021.76 109.504H1023.33V120ZM1036.59 118.576V120H1026.84V118.72L1031.47 116.048C1032.37 115.525 1033.05 115.104 1033.48 114.784C1033.92 114.453 1034.21 114.149 1034.36 113.872C1034.52 113.595 1034.6 113.264 1034.6 112.88V112.72C1034.6 112.101 1034.34 111.627 1033.82 111.296C1033.31 110.965 1032.57 110.8 1031.59 110.8C1030.59 110.8 1029.83 110.976 1029.31 111.328C1028.79 111.68 1028.54 112.192 1028.54 112.864V113.184H1026.94V112.848C1026.94 111.707 1027.34 110.832 1028.14 110.224C1028.94 109.616 1030.08 109.312 1031.56 109.312C1033.01 109.312 1034.15 109.611 1034.97 110.208C1035.79 110.805 1036.2 111.627 1036.2 112.672V112.832C1036.2 113.397 1036.09 113.893 1035.87 114.32C1035.64 114.747 1035.25 115.179 1034.7 115.616C1034.15 116.053 1033.35 116.576 1032.3 117.184L1029.87 118.576H1036.59Z" fill="black"/>
<defs>
<filter id="filter0_i_379_2177" x="0" y="0" width="1164" height="571" filterUnits="userSpaceOnUse" color-interpolation-filters="sRGB">
<feFlood flood-opacity="0" result="BackgroundImageFix"/>
<feBlend mode="normal" in="SourceGraphic" in2="BackgroundImageFix" result="shape"/>
<feColorMatrix in="SourceAlpha" type="matrix" values="0 0 0 0 0 0 0 0 0 0 0 0 0 0 0 0 0 0 127 0" result="hardAlpha"/>
<feOffset dy="30"/>
<feGaussianBlur stdDeviation="15"/>
<feComposite in2="hardAlpha" operator="arithmetic" k2="-1" k3="1"/>
<feColorMatrix type="matrix" values="0 0 0 0 0 0 0 0 0 0 0 0 0 0 0 0 0 0 0.25 0"/>
<feBlend mode="normal" in2="shape" result="effect1_innerShadow_379_2177"/>
</filter>
</defs>
</svg>
