<svg width="1100" height="1216" viewBox="0 0 1100 1216" fill="none" xmlns="http://www.w3.org/2000/svg">
<g filter="url(#filter0_i_372_1930)">
<path d="M636.86 925.307C747.318 825.905 875.24 818.96 773.228 1214" stroke="#FFFCFC" stroke-width="10"/>
</g>
<path d="M30 1.5H1070C1085.74 1.5 1098.5 14.2599 1098.5 30V688C1098.5 703.74 1085.74 716.5 1070 716.5H30C14.2599 716.5 1.5 703.74 1.5 688V30C1.5 14.2599 14.2599 1.5 30 1.5Z" fill="black" stroke="white" stroke-width="3"/>
<rect x="47" y="51" width="1000" height="509" fill="white"/>
<g filter="url(#filter1_i_372_1930)">
<path d="M405.35 838.752C412.195 825.398 425.939 816.999 440.946 816.999H647.238C662.149 816.999 675.822 825.293 682.712 838.517L703.031 877.517C716.905 904.146 697.584 935.999 667.557 935.999H420.954C391.043 935.999 371.714 904.37 385.358 877.752L405.35 838.752Z" fill="#8C8C8C"/>
</g>
<path d="M440.946 818.499H647.238C661.59 818.499 674.75 826.482 681.382 839.21L701.701 878.21C715.055 903.841 696.458 934.499 667.557 934.499H420.954C392.165 934.499 373.561 904.056 386.693 878.437L406.685 839.437C413.274 826.583 426.502 818.499 440.946 818.499Z" stroke="white" stroke-width="3"/>
<g filter="url(#filter2_i_372_1930)">
<rect x="420" y="709" width="248" height="118" fill="#8C8C8C"/>
</g>
<rect x="421.5" y="710.5" width="245" height="115" stroke="white" stroke-width="3"/>
<path d="M1.5 604.5H1098.5V688C1098.5 703.74 1085.74 716.5 1070 716.5H30C14.2599 716.5 1.5 703.74 1.5 688V604.5Z" fill="#999999" stroke="white" stroke-width="3"/>
<path d="M550.285 643.647C547.584 643.647 543.403 640.576 539 640.687C533.191 640.761 527.863 644.054 524.866 649.271C518.835 659.742 523.312 675.208 529.195 683.718C532.081 687.862 535.485 692.524 539.999 692.376C544.328 692.191 545.956 689.564 551.21 689.564C556.427 689.564 557.907 692.376 562.495 692.265C567.157 692.191 570.117 688.047 572.966 683.866C576.259 679.056 577.628 674.394 577.702 674.135C577.591 674.098 568.637 670.657 568.526 660.297C568.452 651.639 575.593 647.495 575.926 647.31C571.856 641.353 565.603 640.687 563.42 640.539C557.722 640.095 552.949 643.647 550.285 643.647ZM559.905 634.915C562.31 632.029 563.901 627.996 563.457 624C560.016 624.148 555.872 626.294 553.393 629.18C551.173 631.733 549.249 635.84 549.767 639.762C553.578 640.058 557.5 637.801 559.905 634.915Z" fill="black"/>
<rect x="47" y="51" width="1000" height="72" fill="#7C7C7C"/>
<rect x="47" y="86" width="1000" height="37" fill="#616161"/>
<path d="M87.32 105H70.12L74.22 109.08V109.42H72.28L67.12 104.26V103.94L72.28 98.78H74.22V99.1L70.14 103.18H87.32V105Z" fill="black"/>
<path d="M145.419 109.27C146.856 110.497 148.722 111.103 150.606 110.954C152.49 110.805 154.237 109.915 155.464 108.477C156.692 107.038 157.304 105.176 157.188 103.287L155.514 103.42C155.592 104.141 155.521 104.871 155.305 105.565C155.089 106.258 154.733 106.899 154.26 107.449C151.052 111.206 144.909 109.209 144.52 104.287C144.132 99.3654 149.892 96.4343 153.643 99.6365L152.101 101.443L156.565 101.09L156.617 101.03L156.213 96.6259L154.671 98.4323C153.234 97.2054 151.368 96.5997 149.484 96.7484C147.6 96.8971 145.853 97.7881 144.626 99.2253C143.399 100.662 142.793 102.528 142.942 104.412C143.091 106.296 143.982 108.043 145.419 109.27Z" fill="black"/>
<rect x="47" y="123" width="133" height="437" fill="#D9D9D9"/>
<path d="M1031.24 110.66C1031.24 111.02 1031.13 111.313 1030.9 111.54C1030.67 111.767 1030.39 111.88 1030.04 111.88C1029.69 111.88 1029.41 111.767 1029.18 111.54C1028.95 111.313 1028.84 111.02 1028.84 110.66C1028.84 110.3 1028.95 110.007 1029.18 109.78C1029.41 109.553 1029.69 109.44 1030.04 109.44C1030.39 109.44 1030.67 109.553 1030.9 109.78C1031.13 110.007 1031.24 110.3 1031.24 110.66ZM1031.24 104.84C1031.24 105.2 1031.13 105.493 1030.9 105.72C1030.67 105.947 1030.39 106.06 1030.04 106.06C1029.69 106.06 1029.41 105.947 1029.18 105.72C1028.95 105.493 1028.84 105.2 1028.84 104.84C1028.84 104.48 1028.95 104.187 1029.18 103.96C1029.41 103.733 1029.69 103.62 1030.04 103.62C1030.39 103.62 1030.67 103.733 1030.9 103.96C1031.13 104.187 1031.24 104.48 1031.24 104.84ZM1031.24 99.22C1031.24 99.58 1031.13 99.8733 1030.9 100.1C1030.67 100.327 1030.39 100.44 1030.04 100.44C1029.69 100.44 1029.41 100.327 1029.18 100.1C1028.95 99.8733 1028.84 99.58 1028.84 99.22C1028.84 98.86 1028.95 98.5667 1029.18 98.34C1029.41 98.1133 1029.69 98 1030.04 98C1030.39 98 1030.67 98.1133 1030.9 98.34C1031.13 98.5667 1031.24 98.86 1031.24 99.22Z" fill="black"/>
<path d="M920.474 553H918.738V546.21C918.318 546.406 917.805 546.504 917.198 546.504H915.63V544.88H917.058C917.637 544.88 918.061 544.796 918.332 544.628C918.603 544.451 918.738 544.18 918.738 543.816H920.474V553ZM931.976 551.432V553H923.31V551.6L927.51 549.206C928.238 548.786 928.765 548.459 929.092 548.226C929.428 547.983 929.652 547.764 929.764 547.568C929.885 547.363 929.946 547.115 929.946 546.826V546.686C929.946 546.229 929.74 545.879 929.33 545.636C928.919 545.393 928.326 545.272 927.552 545.272C926.758 545.272 926.152 545.407 925.732 545.678C925.321 545.939 925.116 546.331 925.116 546.854V547.134H923.366V546.84C923.366 545.813 923.72 545.025 924.43 544.474C925.148 543.923 926.175 543.648 927.51 543.648C928.816 543.648 929.838 543.914 930.576 544.446C931.322 544.969 931.696 545.697 931.696 546.63V546.77C931.696 547.265 931.602 547.694 931.416 548.058C931.229 548.422 930.902 548.786 930.436 549.15C929.978 549.514 929.306 549.948 928.42 550.452L926.684 551.432H931.976ZM935.446 547.092C935.138 547.092 934.886 546.999 934.69 546.812C934.503 546.625 934.41 546.383 934.41 546.084C934.41 545.785 934.503 545.543 934.69 545.356C934.886 545.169 935.138 545.076 935.446 545.076C935.754 545.076 936.001 545.169 936.188 545.356C936.384 545.543 936.482 545.785 936.482 546.084C936.482 546.383 936.384 546.625 936.188 546.812C936.001 546.999 935.754 547.092 935.446 547.092ZM935.446 551.726C935.138 551.726 934.886 551.633 934.69 551.446C934.503 551.259 934.41 551.017 934.41 550.718C934.41 550.419 934.503 550.177 934.69 549.99C934.886 549.803 935.138 549.71 935.446 549.71C935.754 549.71 936.001 549.803 936.188 549.99C936.384 550.177 936.482 550.419 936.482 550.718C936.482 551.017 936.384 551.259 936.188 551.446C936.001 551.633 935.754 551.726 935.446 551.726ZM944.602 547.428C945.741 547.512 946.609 547.778 947.206 548.226C947.804 548.674 948.102 549.281 948.102 550.046V550.214C948.102 551.175 947.715 551.908 946.94 552.412C946.166 552.916 945.032 553.168 943.538 553.168C942.064 553.159 940.939 552.902 940.164 552.398C939.39 551.894 939.002 551.161 939.002 550.2V550.102H940.738V550.2C940.738 550.629 940.981 550.961 941.466 551.194C941.961 551.427 942.656 551.544 943.552 551.544C945.419 551.544 946.352 551.115 946.352 550.256V550.088C946.352 549.295 945.424 548.898 943.566 548.898H941.97V547.358L945.078 545.384H939.17V543.816H947.864V545.384L944.602 547.428ZM960.787 551.026H958.519V553H956.783V551.026H950.133V549.458C950.796 548.422 951.337 547.461 951.757 546.574C952.177 545.678 952.527 544.759 952.807 543.816H954.655V544.082C954.095 545.855 953.264 547.647 952.163 549.458H956.783V545.426H958.519V549.458H960.787V551.026Z" fill="black"/>
<rect x="261" y="133" width="404" height="49" rx="24.5" fill="#D9D9D9"/>
<path d="M292.5 164.5L288 160M279 156.25C279 156.939 279.136 157.622 279.4 158.259C279.663 158.896 280.05 159.475 280.538 159.962C281.025 160.45 281.604 160.837 282.241 161.1C282.878 161.364 283.561 161.5 284.25 161.5C284.939 161.5 285.622 161.364 286.259 161.1C286.896 160.837 287.475 160.45 287.962 159.962C288.45 159.475 288.837 158.896 289.1 158.259C289.364 157.622 289.5 156.939 289.5 156.25C289.5 155.561 289.364 154.878 289.1 154.241C288.837 153.604 288.45 153.025 287.962 152.538C287.475 152.05 286.896 151.663 286.259 151.4C285.622 151.136 284.939 151 284.25 151C283.561 151 282.878 151.136 282.241 151.4C281.604 151.663 281.025 152.05 280.538 152.538C280.05 153.025 279.663 153.604 279.4 154.241C279.136 154.878 279 155.561 279 156.25Z" stroke="black" stroke-width="2" stroke-linecap="round" stroke-linejoin="round"/>
<path d="M306.9 428.1C316.3 428.1 323.6 430.35 328.8 434.85C334.1 439.25 336.75 445.4 336.75 453.3V455.1C336.75 462.8 334.05 468.85 328.65 473.25C323.35 477.65 316.1 479.85 306.9 479.85H251.4V418.65H220.8V405.75H265.8V428.1H306.9ZM321.9 453.3C321.9 445 316.55 440.85 305.85 440.85H265.8V467.25H305.85C311.05 467.25 315 466.2 317.7 464.1C320.5 462 321.9 459 321.9 455.1V453.3Z" fill="black"/>
<path d="M633.45 410.35C641.65 410.35 648.85 411.8 655.05 414.7C661.25 417.5 666.05 421.55 669.45 426.85C672.85 432.05 674.55 438.1 674.55 445V448.6C674.55 455.4 672.7 461.4 669 466.6C665.4 471.7 660.3 475.7 653.7 478.6C647.1 481.4 639.4 482.8 630.6 482.8C616.1 482.8 604.95 479 597.15 471.4C589.35 463.7 585.45 452.75 585.45 438.55V428.35C585.45 414.35 589.1 403.65 596.4 396.25C603.7 388.75 614.75 384.45 629.55 383.35L649.2 381.85C651.1 381.75 652.45 381.4 653.25 380.8C654.15 380.1 654.6 379.15 654.6 377.95V376.6H670.05V378.4C670.05 383.4 668.6 387.3 665.7 390.1C662.9 392.8 658.6 394.35 652.8 394.75L629.85 396.55C619.45 397.35 611.75 399.85 606.75 404.05C601.85 408.25 599.35 414.35 599.25 422.35C603.35 418.55 608.35 415.6 614.25 413.5C620.15 411.4 626.55 410.35 633.45 410.35ZM659.7 445.3C659.7 438.5 657.1 433.15 651.9 429.25C646.7 425.35 639.5 423.4 630.3 423.4C617.1 423.4 606.95 427.65 599.85 436.15V442.15C599.85 451.25 602.4 458.15 607.5 462.85C612.7 467.45 620.3 469.75 630.3 469.75C639.4 469.75 646.55 467.85 651.75 464.05C657.05 460.25 659.7 455.05 659.7 448.45V445.3Z" fill="black"/>
<path d="M909.25 381.85L865.6 427.9L907.75 475.75V478H890.65L852.25 435.1H831.7V478H816.85V435.1H796.3L757.9 478H740.8V475.75L783.1 427.9L739.3 381.85V379.6H757L796.6 421.45H816.85V379.6H831.7V421.45H851.95L891.55 379.6H909.25V381.85Z" fill="black"/>
<path d="M505.3 478H490.3V392.95L437.8 393.1L437.05 438.7C436.85 452.3 434.25 462.25 429.25 468.55C424.35 474.85 416.75 478 406.45 478H400V464.65H403.75C408.45 464.65 412.15 463.8 414.85 462.1C417.65 460.3 419.65 457.45 420.85 453.55C422.15 449.65 422.85 444.35 422.95 437.65L424 379.6H505.3V478Z" fill="black"/>
<path d="M280.52 405.64C281.907 405.64 283.107 405.84 284.12 406.24C285.147 406.64 285.927 407.213 286.46 407.96C287.007 408.707 287.28 409.587 287.28 410.6V413.92C287.28 415.587 286.687 416.893 285.5 417.84C284.327 418.773 282.693 419.24 280.6 419.24C279.347 419.24 278.253 419.073 277.32 418.74C276.387 418.407 275.667 417.933 275.16 417.32C274.667 416.693 274.42 415.96 274.42 415.12V414.96H276.4V415.12C276.4 415.827 276.773 416.38 277.52 416.78C278.267 417.18 279.293 417.38 280.6 417.38C282.12 417.38 283.28 417.087 284.08 416.5C284.893 415.913 285.3 415.067 285.3 413.96V412.72C284.14 413.653 282.5 414.12 280.38 414.12C278.393 414.12 276.867 413.787 275.8 413.12C274.733 412.44 274.2 411.46 274.2 410.18V409.9C274.2 408.567 274.76 407.527 275.88 406.78C277.013 406.02 278.56 405.64 280.52 405.64ZM280.4 412.28C281.56 412.28 282.567 412.147 283.42 411.88C284.273 411.6 284.9 411.207 285.3 410.7V410.58C285.3 409.62 284.88 408.867 284.04 408.32C283.2 407.773 282.02 407.5 280.5 407.5C279.14 407.5 278.08 407.7 277.32 408.1C276.56 408.5 276.18 409.073 276.18 409.82V410.1C276.18 411.553 277.587 412.28 280.4 412.28ZM296.923 419.24C295.589 419.24 294.409 419 293.383 418.52C292.369 418.04 291.576 417.367 291.003 416.5C290.443 415.633 290.163 414.64 290.163 413.52V411.38C290.163 410.247 290.443 409.247 291.003 408.38C291.576 407.513 292.369 406.84 293.383 406.36C294.409 405.88 295.589 405.64 296.923 405.64C298.243 405.64 299.409 405.88 300.423 406.36C301.436 406.84 302.223 407.513 302.783 408.38C303.343 409.247 303.623 410.247 303.623 411.38V413.52C303.623 414.653 303.343 415.653 302.783 416.52C302.223 417.373 301.436 418.04 300.423 418.52C299.409 419 298.243 419.24 296.923 419.24ZM296.923 417.38C298.389 417.38 299.543 417.04 300.383 416.36C301.223 415.68 301.643 414.74 301.643 413.54V411.36C301.643 410.173 301.216 409.233 300.363 408.54C299.523 407.847 298.369 407.5 296.903 407.5C295.423 407.5 294.256 407.847 293.403 408.54C292.563 409.22 292.143 410.16 292.143 411.36V413.54C292.143 414.74 292.563 415.68 293.403 416.36C294.256 417.04 295.429 417.38 296.923 417.38ZM309.57 412.18C308.877 412.18 308.25 412.047 307.69 411.78C307.144 411.513 306.71 411.14 306.39 410.66C306.084 410.18 305.93 409.64 305.93 409.04V408.8C305.93 408.2 306.084 407.66 306.39 407.18C306.71 406.7 307.144 406.327 307.69 406.06C308.25 405.793 308.877 405.66 309.57 405.66C310.624 405.66 311.477 405.953 312.13 406.54C312.797 407.127 313.13 407.887 313.13 408.82V409.04C313.13 409.973 312.797 410.733 312.13 411.32C311.477 411.893 310.624 412.18 309.57 412.18ZM309.55 410.72C310.137 410.72 310.617 410.567 310.99 410.26C311.364 409.94 311.55 409.533 311.55 409.04V408.78C311.55 408.287 311.364 407.887 310.99 407.58C310.617 407.26 310.137 407.1 309.55 407.1C308.95 407.1 308.464 407.26 308.09 407.58C307.717 407.887 307.53 408.287 307.53 408.78V409.04C307.53 409.533 307.717 409.94 308.09 410.26C308.477 410.567 308.964 410.72 309.55 410.72Z" fill="#59FF00" fill-opacity="0.89"/>
<path d="M893.52 423.64C894.907 423.64 896.107 423.84 897.12 424.24C898.147 424.64 898.927 425.213 899.46 425.96C900.007 426.707 900.28 427.587 900.28 428.6V431.92C900.28 433.587 899.687 434.893 898.5 435.84C897.327 436.773 895.693 437.24 893.6 437.24C892.347 437.24 891.253 437.073 890.32 436.74C889.387 436.407 888.667 435.933 888.16 435.32C887.667 434.693 887.42 433.96 887.42 433.12V432.96H889.4V433.12C889.4 433.827 889.773 434.38 890.52 434.78C891.267 435.18 892.293 435.38 893.6 435.38C895.12 435.38 896.28 435.087 897.08 434.5C897.893 433.913 898.3 433.067 898.3 431.96V430.72C897.14 431.653 895.5 432.12 893.38 432.12C891.393 432.12 889.867 431.787 888.8 431.12C887.733 430.44 887.2 429.46 887.2 428.18V427.9C887.2 426.567 887.76 425.527 888.88 424.78C890.013 424.02 891.56 423.64 893.52 423.64ZM893.4 430.28C894.56 430.28 895.567 430.147 896.42 429.88C897.273 429.6 897.9 429.207 898.3 428.7V428.58C898.3 427.62 897.88 426.867 897.04 426.32C896.2 425.773 895.02 425.5 893.5 425.5C892.14 425.5 891.08 425.7 890.32 426.1C889.56 426.5 889.18 427.073 889.18 427.82V428.1C889.18 429.553 890.587 430.28 893.4 430.28ZM909.923 437.24C908.589 437.24 907.409 437 906.383 436.52C905.369 436.04 904.576 435.367 904.003 434.5C903.443 433.633 903.163 432.64 903.163 431.52V429.38C903.163 428.247 903.443 427.247 904.003 426.38C904.576 425.513 905.369 424.84 906.383 424.36C907.409 423.88 908.589 423.64 909.923 423.64C911.243 423.64 912.409 423.88 913.423 424.36C914.436 424.84 915.223 425.513 915.783 426.38C916.343 427.247 916.623 428.247 916.623 429.38V431.52C916.623 432.653 916.343 433.653 915.783 434.52C915.223 435.373 914.436 436.04 913.423 436.52C912.409 437 911.243 437.24 909.923 437.24ZM909.923 435.38C911.389 435.38 912.543 435.04 913.383 434.36C914.223 433.68 914.643 432.74 914.643 431.54V429.36C914.643 428.173 914.216 427.233 913.363 426.54C912.523 425.847 911.369 425.5 909.903 425.5C908.423 425.5 907.256 425.847 906.403 426.54C905.563 427.22 905.143 428.16 905.143 429.36V431.54C905.143 432.74 905.563 433.68 906.403 434.36C907.256 435.04 908.429 435.38 909.923 435.38ZM922.57 430.18C921.877 430.18 921.25 430.047 920.69 429.78C920.144 429.513 919.71 429.14 919.39 428.66C919.084 428.18 918.93 427.64 918.93 427.04V426.8C918.93 426.2 919.084 425.66 919.39 425.18C919.71 424.7 920.144 424.327 920.69 424.06C921.25 423.793 921.877 423.66 922.57 423.66C923.624 423.66 924.477 423.953 925.13 424.54C925.797 425.127 926.13 425.887 926.13 426.82V427.04C926.13 427.973 925.797 428.733 925.13 429.32C924.477 429.893 923.624 430.18 922.57 430.18ZM922.55 428.72C923.137 428.72 923.617 428.567 923.99 428.26C924.364 427.94 924.55 427.533 924.55 427.04V426.78C924.55 426.287 924.364 425.887 923.99 425.58C923.617 425.26 923.137 425.1 922.55 425.1C921.95 425.1 921.464 425.26 921.09 425.58C920.717 425.887 920.53 426.287 920.53 426.78V427.04C920.53 427.533 920.717 427.94 921.09 428.26C921.477 428.567 921.964 428.72 922.55 428.72Z" fill="#59FF00" fill-opacity="0.89"/>
<circle cx="411.5" cy="461.5" r="41" stroke="#59FF00" stroke-opacity="0.89" stroke-width="3"/>
<circle cx="285.5" cy="412.5" r="41" stroke="#59FF00" stroke-opacity="0.89" stroke-width="3"/>
<circle cx="656.5" cy="390.5" r="41" stroke="#59FF00" stroke-opacity="0.89" stroke-width="3"/>
<circle cx="900.5" cy="430.5" r="41" stroke="#59FF00" stroke-opacity="0.89" stroke-width="3"/>
<path fill-rule="evenodd" clip-rule="evenodd" d="M988 544.186C988 543.743 987.627 543.385 987.167 543.385H986.333C985.873 543.385 985.5 543.743 985.5 544.186V551.127C985.5 551.569 985.873 551.928 986.333 551.928H987.167C987.627 551.928 988 551.569 988 551.127V544.186ZM982.192 545.093H983.025C983.486 545.093 983.859 545.461 983.859 545.914V551.108C983.859 551.561 983.486 551.928 983.025 551.928H982.192C981.732 551.928 981.359 551.561 981.359 551.108V545.914C981.359 545.461 981.732 545.093 982.192 545.093ZM978.808 546.944H977.975C977.514 546.944 977.141 547.316 977.141 547.775V551.097C977.141 551.556 977.514 551.928 977.975 551.928H978.808C979.268 551.928 979.641 551.556 979.641 551.097V547.775C979.641 547.316 979.268 546.944 978.808 546.944ZM974.667 548.653H973.833C973.373 548.653 973 549.02 973 549.472V551.109C973 551.561 973.373 551.928 973.833 551.928H974.667C975.127 551.928 975.5 551.561 975.5 551.109V549.472C975.5 549.02 975.127 548.653 974.667 548.653Z" fill="black"/>
<path fill-rule="evenodd" clip-rule="evenodd" d="M1004 545.094C1006.03 545.094 1007.99 545.733 1009.46 546.879C1009.57 546.967 1009.75 546.966 1009.85 546.876L1010.91 546.001C1010.97 545.955 1011 545.893 1011 545.829C1011 545.765 1010.97 545.703 1010.91 545.658C1007.05 542.627 1000.95 542.627 997.088 545.658C997.032 545.703 997.001 545.765 997 545.829C996.999 545.893 997.03 545.955 997.086 546.001L998.145 546.876C998.255 546.966 998.432 546.967 998.543 546.879C1000.02 545.733 1001.97 545.094 1004 545.094ZM1004 548.018C1005.11 548.018 1006.18 548.373 1007 549.013C1007.11 549.104 1007.28 549.102 1007.39 549.009L1008.44 548.095C1008.5 548.047 1008.53 547.982 1008.53 547.914C1008.53 547.846 1008.5 547.782 1008.44 547.735C1005.94 545.732 1002.06 545.732 999.559 547.735C999.502 547.782 999.47 547.846 999.469 547.914C999.469 547.982 999.499 548.047 999.555 548.095L1000.61 549.009C1000.71 549.102 1000.89 549.104 1001 549.013C1001.82 548.373 1002.89 548.019 1004 548.018ZM1006.06 549.954C1006.06 550.027 1006.03 550.098 1005.98 550.149L1004.2 551.85C1004.15 551.9 1004.07 551.928 1004 551.928C1003.93 551.928 1003.86 551.9 1003.8 551.85L1002.03 550.149C1001.97 550.098 1001.94 550.027 1001.94 549.954C1001.94 549.881 1001.98 549.812 1002.03 549.763C1003.17 548.853 1004.83 548.853 1005.97 549.763C1006.02 549.812 1006.06 549.881 1006.06 549.954Z" fill="black"/>
<path fill-rule="evenodd" clip-rule="evenodd" d="M1036.96 543.359H1020.86C1020.33 543.359 1019.96 543.359 1019.67 543.379C1019.39 543.398 1019.22 543.434 1019.09 543.488C1018.83 543.601 1018.61 543.782 1018.47 544.005C1018.4 544.111 1018.36 544.249 1018.34 544.484C1018.31 544.723 1018.31 545.03 1018.31 545.468V550.015C1018.31 550.453 1018.31 550.76 1018.34 550.999C1018.36 551.234 1018.4 551.372 1018.47 551.478C1018.61 551.701 1018.83 551.882 1019.09 551.996C1019.22 552.05 1019.39 552.086 1019.67 552.105C1019.96 552.124 1020.33 552.125 1020.86 552.125H1036.96C1037.49 552.125 1037.86 552.124 1038.15 552.105C1038.43 552.086 1038.6 552.05 1038.73 551.996C1038.99 551.882 1039.21 551.701 1039.35 551.478C1039.42 551.372 1039.46 551.234 1039.48 550.999C1039.51 550.76 1039.51 550.453 1039.51 550.015V545.468C1039.51 545.03 1039.51 544.723 1039.48 544.484C1039.46 544.249 1039.42 544.111 1039.35 544.005C1039.21 543.782 1038.99 543.601 1038.73 543.488C1038.6 543.434 1038.43 543.398 1038.15 543.379C1037.86 543.359 1037.49 543.359 1036.96 543.359ZM1018.08 543.842C1017.88 544.172 1017.88 544.604 1017.88 545.468V550.015C1017.88 550.879 1017.88 551.311 1018.08 551.641C1018.26 551.931 1018.55 552.167 1018.9 552.315C1019.3 552.483 1019.82 552.483 1020.86 552.483H1036.96C1038 552.483 1038.52 552.483 1038.92 552.315C1039.27 552.167 1039.56 551.931 1039.74 551.641C1039.94 551.311 1039.94 550.879 1039.94 550.015V545.468C1039.94 544.604 1039.94 544.172 1039.74 543.842C1039.56 543.552 1039.27 543.316 1038.92 543.168C1038.52 543 1038 543 1036.96 543H1020.86C1019.82 543 1019.3 543 1018.9 543.168C1018.55 543.316 1018.26 543.552 1018.08 543.842Z" fill="black"/>
<path d="M1040.83 546.487V549.46C1041.54 549.209 1042 548.623 1042 547.974C1042 547.325 1041.54 546.739 1040.83 546.487" fill="black"/>
<path d="M1019.64 545.893C1019.64 545.391 1019.64 545.14 1019.76 544.948C1019.87 544.779 1020.03 544.642 1020.24 544.556C1020.47 544.458 1020.77 544.458 1021.38 544.458H1036.44C1037.05 544.458 1037.35 544.458 1037.58 544.556C1037.79 544.642 1037.95 544.779 1038.06 544.948C1038.18 545.14 1038.18 545.391 1038.18 545.893V549.589C1038.18 550.091 1038.18 550.342 1038.06 550.534C1037.95 550.703 1037.79 550.84 1037.58 550.926C1037.35 551.023 1037.05 551.023 1036.44 551.023H1021.38C1020.77 551.023 1020.47 551.023 1020.24 550.926C1020.03 550.84 1019.87 550.703 1019.76 550.534C1019.64 550.342 1019.64 550.091 1019.64 549.589V545.893Z" fill="black"/>
<defs>
<filter id="filter0_i_372_1930" x="633.515" y="863.151" width="182.003" height="356.097" filterUnits="userSpaceOnUse" color-interpolation-filters="sRGB">
<feFlood flood-opacity="0" result="BackgroundImageFix"/>
<feBlend mode="normal" in="SourceGraphic" in2="BackgroundImageFix" result="shape"/>
<feColorMatrix in="SourceAlpha" type="matrix" values="0 0 0 0 0 0 0 0 0 0 0 0 0 0 0 0 0 0 127 0" result="hardAlpha"/>
<feOffset dy="10"/>
<feGaussianBlur stdDeviation="2"/>
<feComposite in2="hardAlpha" operator="arithmetic" k2="-1" k3="1"/>
<feColorMatrix type="matrix" values="0 0 0 0 0 0 0 0 0 0 0 0 0 0 0 0 0 0 0.45 0"/>
<feBlend mode="normal" in2="shape" result="effect1_innerShadow_372_1930"/>
</filter>
<filter id="filter1_i_372_1930" x="380.901" y="807.299" width="326.71" height="128.7" filterUnits="userSpaceOnUse" color-interpolation-filters="sRGB">
<feFlood flood-opacity="0" result="BackgroundImageFix"/>
<feBlend mode="normal" in="SourceGraphic" in2="BackgroundImageFix" result="shape"/>
<feColorMatrix in="SourceAlpha" type="matrix" values="0 0 0 0 0 0 0 0 0 0 0 0 0 0 0 0 0 0 127 0" result="hardAlpha"/>
<feOffset dy="-15"/>
<feGaussianBlur stdDeviation="4.85"/>
<feComposite in2="hardAlpha" operator="arithmetic" k2="-1" k3="1"/>
<feColorMatrix type="matrix" values="0 0 0 0 0 0 0 0 0 0 0 0 0 0 0 0 0 0 0.25 0"/>
<feBlend mode="normal" in2="shape" result="effect1_innerShadow_372_1930"/>
</filter>
<filter id="filter2_i_372_1930" x="420" y="709" width="248" height="133" filterUnits="userSpaceOnUse" color-interpolation-filters="sRGB">
<feFlood flood-opacity="0" result="BackgroundImageFix"/>
<feBlend mode="normal" in="SourceGraphic" in2="BackgroundImageFix" result="shape"/>
<feColorMatrix in="SourceAlpha" type="matrix" values="0 0 0 0 0 0 0 0 0 0 0 0 0 0 0 0 0 0 127 0" result="hardAlpha"/>
<feOffset dy="30"/>
<feGaussianBlur stdDeviation="7.5"/>
<feComposite in2="hardAlpha" operator="arithmetic" k2="-1" k3="1"/>
<feColorMatrix type="matrix" values="0 0 0 0 0 0 0 0 0 0 0 0 0 0 0 0 0 0 0.25 0"/>
<feBlend mode="normal" in2="shape" result="effect1_innerShadow_372_1930"/>
</filter>
</defs>
</svg>
